<mxfile host="app.diagrams.net" modified="2023-03-28T20:45:25.730Z" agent="Mozilla/5.0 (Windows NT 10.0; Win64; x64; rv:109.0) Gecko/20100101 Firefox/111.0" etag="oF134_3Wp6uc9W6JJD-S" version="21.1.1" type="github">
  <diagram id="TdcTRFdXPKHcd5zqCikp" name="Page-1">
    <mxGraphModel dx="8685" dy="1885" grid="1" gridSize="10" guides="1" tooltips="1" connect="1" arrows="1" fold="1" page="1" pageScale="1" pageWidth="850" pageHeight="1100" math="0" shadow="0">
      <root>
        <mxCell id="0" />
        <mxCell id="1" parent="0" />
        <mxCell id="Kw9__kutnGEFumvWiqR3-51" style="edgeStyle=orthogonalEdgeStyle;rounded=0;orthogonalLoop=1;jettySize=auto;html=1;entryX=0.5;entryY=0;entryDx=0;entryDy=0;entryPerimeter=0;" parent="1" source="nD2JxC32oF_jErjhYnny-4" target="Kw9__kutnGEFumvWiqR3-47" edge="1">
          <mxGeometry relative="1" as="geometry" />
        </mxCell>
        <mxCell id="Kw9__kutnGEFumvWiqR3-52" value="&amp;lt;&amp;lt;Старт&amp;gt;&amp;gt;" style="edgeLabel;html=1;align=center;verticalAlign=middle;resizable=0;points=[];" parent="Kw9__kutnGEFumvWiqR3-51" vertex="1" connectable="0">
          <mxGeometry x="-0.1968" y="1" relative="1" as="geometry">
            <mxPoint as="offset" />
          </mxGeometry>
        </mxCell>
        <mxCell id="nD2JxC32oF_jErjhYnny-4" value="" style="ellipse;html=1;shape=startState;fillColor=#000000;strokeColor=#080000;" parent="1" vertex="1">
          <mxGeometry x="390" y="110" width="30" height="30" as="geometry" />
        </mxCell>
        <mxCell id="nD2JxC32oF_jErjhYnny-33" style="edgeStyle=orthogonalEdgeStyle;rounded=0;comic=1;jiggle=0;orthogonalLoop=1;jettySize=auto;html=1;exitX=0.5;exitY=1;exitDx=0;exitDy=0;exitPerimeter=0;" parent="1" source="Kw9__kutnGEFumvWiqR3-56" target="nD2JxC32oF_jErjhYnny-31" edge="1">
          <mxGeometry relative="1" as="geometry">
            <mxPoint x="410" y="610" as="sourcePoint" />
          </mxGeometry>
        </mxCell>
        <mxCell id="nD2JxC32oF_jErjhYnny-35" value="&amp;lt;&amp;lt;Завершение работы&amp;gt;&amp;gt;" style="edgeLabel;html=1;align=center;verticalAlign=middle;resizable=0;points=[];" parent="nD2JxC32oF_jErjhYnny-33" vertex="1" connectable="0">
          <mxGeometry x="0.1608" y="-1" relative="1" as="geometry">
            <mxPoint as="offset" />
          </mxGeometry>
        </mxCell>
        <mxCell id="nD2JxC32oF_jErjhYnny-32" style="edgeStyle=orthogonalEdgeStyle;rounded=0;comic=1;jiggle=0;orthogonalLoop=1;jettySize=auto;html=1;strokeColor=#000000;entryX=0.5;entryY=0;entryDx=0;entryDy=0;entryPerimeter=0;" parent="1" source="nD2JxC32oF_jErjhYnny-27" target="Kw9__kutnGEFumvWiqR3-56" edge="1">
          <mxGeometry relative="1" as="geometry">
            <mxPoint x="405" y="550" as="targetPoint" />
          </mxGeometry>
        </mxCell>
        <mxCell id="Kw9__kutnGEFumvWiqR3-57" value="&amp;lt;&amp;lt;Выход из системы&amp;gt;&amp;gt;" style="edgeLabel;html=1;align=center;verticalAlign=middle;resizable=0;points=[];" parent="nD2JxC32oF_jErjhYnny-32" vertex="1" connectable="0">
          <mxGeometry x="-0.2838" y="-1" relative="1" as="geometry">
            <mxPoint as="offset" />
          </mxGeometry>
        </mxCell>
        <mxCell id="nD2JxC32oF_jErjhYnny-27" value="Работа с приложением" style="shape=umlState;rounded=1;verticalAlign=top;spacingTop=5;umlStateSymbol=collapseState;absoluteArcSize=1;arcSize=10;jiggle=0;movable=0;resizable=0;rotatable=0;deletable=0;editable=0;locked=1;connectable=0;" parent="1" vertex="1">
          <mxGeometry x="170" y="370" width="470" height="120" as="geometry" />
        </mxCell>
        <mxCell id="nD2JxC32oF_jErjhYnny-28" value="Работа администратора" style="html=1;align=center;verticalAlign=top;rounded=1;absoluteArcSize=1;arcSize=10;dashed=0;jiggle=0;movable=0;resizable=0;rotatable=0;deletable=0;editable=0;locked=1;connectable=0;" parent="1" vertex="1">
          <mxGeometry x="180" y="430" width="140" height="30" as="geometry" />
        </mxCell>
        <mxCell id="nD2JxC32oF_jErjhYnny-29" value="Работа владельца" style="html=1;align=center;verticalAlign=top;rounded=1;absoluteArcSize=1;arcSize=10;dashed=0;jiggle=0;strokeColor=#000000;movable=0;resizable=0;rotatable=0;deletable=0;editable=0;locked=1;connectable=0;" parent="1" vertex="1">
          <mxGeometry x="325" y="430" width="140" height="30" as="geometry" />
        </mxCell>
        <mxCell id="nD2JxC32oF_jErjhYnny-30" value="Работа участника корзины" style="html=1;align=center;verticalAlign=top;rounded=1;absoluteArcSize=1;arcSize=10;dashed=0;jiggle=0;strokeColor=#000000;movable=0;resizable=0;rotatable=0;deletable=0;editable=0;locked=1;connectable=0;" parent="1" vertex="1">
          <mxGeometry x="470" y="430" width="160" height="30" as="geometry" />
        </mxCell>
        <mxCell id="nD2JxC32oF_jErjhYnny-31" value="" style="ellipse;html=1;shape=endState;fillColor=strokeColor;jiggle=0;" parent="1" vertex="1">
          <mxGeometry x="390" y="660" width="30" height="30" as="geometry" />
        </mxCell>
        <mxCell id="nD2JxC32oF_jErjhYnny-36" value="" style="line;strokeWidth=1;rotatable=0;dashed=0;labelPosition=right;align=left;verticalAlign=middle;spacingTop=0;spacingLeft=6;points=[];portConstraint=eastwest;jiggle=0;strokeColor=#000000;movable=0;resizable=0;deletable=0;editable=0;locked=1;connectable=0;" parent="1" vertex="1">
          <mxGeometry x="170" y="400" width="470" height="10" as="geometry" />
        </mxCell>
        <mxCell id="nD2JxC32oF_jErjhYnny-37" value="do: работа с информацией" style="text;html=1;strokeColor=none;fillColor=none;align=center;verticalAlign=middle;whiteSpace=wrap;rounded=0;movable=0;resizable=0;rotatable=0;deletable=0;editable=0;locked=1;connectable=0;" parent="1" vertex="1">
          <mxGeometry x="170" y="410" width="170" height="20" as="geometry" />
        </mxCell>
        <mxCell id="nD2JxC32oF_jErjhYnny-63" style="edgeStyle=orthogonalEdgeStyle;rounded=0;comic=1;jiggle=0;orthogonalLoop=1;jettySize=auto;html=1;entryX=0.5;entryY=0;entryDx=0;entryDy=0;strokeColor=#000000;entryPerimeter=0;" parent="1" source="nD2JxC32oF_jErjhYnny-61" target="nD2JxC32oF_jErjhYnny-64" edge="1">
          <mxGeometry relative="1" as="geometry">
            <mxPoint x="-685" y="210" as="targetPoint" />
          </mxGeometry>
        </mxCell>
        <mxCell id="nD2JxC32oF_jErjhYnny-104" value="&amp;lt;&amp;lt;Вход в систему&amp;gt;&amp;gt;" style="edgeLabel;html=1;align=center;verticalAlign=middle;resizable=0;points=[];" parent="nD2JxC32oF_jErjhYnny-63" vertex="1" connectable="0">
          <mxGeometry x="-0.3151" y="1" relative="1" as="geometry">
            <mxPoint as="offset" />
          </mxGeometry>
        </mxCell>
        <mxCell id="nD2JxC32oF_jErjhYnny-61" value="" style="ellipse;fillColor=strokeColor;jiggle=0;strokeColor=#000000;" parent="1" vertex="1">
          <mxGeometry x="-552.5" y="270" width="30" height="30" as="geometry" />
        </mxCell>
        <mxCell id="nD2JxC32oF_jErjhYnny-77" style="edgeStyle=orthogonalEdgeStyle;rounded=0;comic=1;jiggle=0;orthogonalLoop=1;jettySize=auto;html=1;entryX=0.5;entryY=0;entryDx=0;entryDy=0;entryPerimeter=0;strokeColor=#000000;" parent="1" source="nD2JxC32oF_jErjhYnny-64" target="nD2JxC32oF_jErjhYnny-73" edge="1">
          <mxGeometry relative="1" as="geometry" />
        </mxCell>
        <mxCell id="nD2JxC32oF_jErjhYnny-78" value="&amp;lt;&amp;lt;Вывод списка таблиц&amp;gt;&amp;gt;" style="edgeLabel;html=1;align=center;verticalAlign=middle;resizable=0;points=[];" parent="nD2JxC32oF_jErjhYnny-77" vertex="1" connectable="0">
          <mxGeometry x="0.2341" y="-3" relative="1" as="geometry">
            <mxPoint as="offset" />
          </mxGeometry>
        </mxCell>
        <mxCell id="nD2JxC32oF_jErjhYnny-64" value="&lt;p style=&quot;margin:0px;margin-top:4px;text-align:center;&quot;&gt;Вывод списка таблицы&lt;/p&gt;&lt;hr&gt;&lt;p style=&quot;margin:0px;margin-left:8px;text-align:left;&quot;&gt;do: Работа с интерфесом&amp;nbsp;&lt;br&gt;&lt;br&gt;&lt;/p&gt;" style="shape=mxgraph.sysml.simpleState;html=1;overflow=fill;whiteSpace=wrap;align=center;jiggle=0;strokeColor=#080000;" parent="1" vertex="1">
          <mxGeometry x="-637.5" y="350" width="200" height="50" as="geometry" />
        </mxCell>
        <mxCell id="Kw9__kutnGEFumvWiqR3-49" style="edgeStyle=orthogonalEdgeStyle;rounded=0;orthogonalLoop=1;jettySize=auto;html=1;entryX=1;entryY=0.5;entryDx=0;entryDy=0;entryPerimeter=0;" parent="1" source="nD2JxC32oF_jErjhYnny-67" target="Kw9__kutnGEFumvWiqR3-47" edge="1">
          <mxGeometry relative="1" as="geometry">
            <Array as="points">
              <mxPoint x="550" y="300" />
              <mxPoint x="550" y="230" />
            </Array>
          </mxGeometry>
        </mxCell>
        <mxCell id="Kw9__kutnGEFumvWiqR3-50" value="&amp;lt;&amp;lt;Ошибка&amp;gt;&amp;gt;" style="edgeLabel;html=1;align=center;verticalAlign=middle;resizable=0;points=[];" parent="Kw9__kutnGEFumvWiqR3-49" vertex="1" connectable="0">
          <mxGeometry x="0.1769" y="2" relative="1" as="geometry">
            <mxPoint as="offset" />
          </mxGeometry>
        </mxCell>
        <mxCell id="Kw9__kutnGEFumvWiqR3-54" style="edgeStyle=orthogonalEdgeStyle;rounded=0;orthogonalLoop=1;jettySize=auto;html=1;exitX=0.5;exitY=1;exitDx=0;exitDy=0;" parent="1" source="nD2JxC32oF_jErjhYnny-67" edge="1">
          <mxGeometry relative="1" as="geometry">
            <mxPoint x="404.94252873563255" y="370" as="targetPoint" />
          </mxGeometry>
        </mxCell>
        <mxCell id="Kw9__kutnGEFumvWiqR3-55" value="&amp;lt;&amp;lt;Успешно&amp;gt;&amp;gt;" style="edgeLabel;html=1;align=center;verticalAlign=middle;resizable=0;points=[];" parent="Kw9__kutnGEFumvWiqR3-54" vertex="1" connectable="0">
          <mxGeometry x="-0.2149" relative="1" as="geometry">
            <mxPoint as="offset" />
          </mxGeometry>
        </mxCell>
        <mxCell id="nD2JxC32oF_jErjhYnny-67" value="Авторизация" style="html=1;align=center;verticalAlign=top;rounded=1;absoluteArcSize=1;arcSize=10;dashed=0;jiggle=0;strokeColor=#080000;" parent="1" vertex="1">
          <mxGeometry x="335" y="280" width="140" height="40" as="geometry" />
        </mxCell>
        <mxCell id="nD2JxC32oF_jErjhYnny-73" value="&lt;p style=&quot;margin:0px;margin-top:4px;text-align:center;&quot;&gt;Отображение списка таблиц&lt;/p&gt;&lt;hr&gt;&lt;p&gt;&lt;/p&gt;&lt;p style=&quot;margin:0px;margin-left:8px;text-align:left;&quot;&gt;&lt;br&gt;&lt;/p&gt;" style="shape=mxgraph.sysml.simpleState;html=1;overflow=fill;whiteSpace=wrap;align=center;jiggle=0;strokeColor=#080000;" parent="1" vertex="1">
          <mxGeometry x="-655" y="455" width="230" height="195" as="geometry" />
        </mxCell>
        <mxCell id="nD2JxC32oF_jErjhYnny-74" value="" style="shape=mxgraph.sysml.actFinal;html=1;verticalLabelPosition=bottom;labelBackgroundColor=#ffffff;verticalAlign=top;jiggle=0;strokeColor=#080000;" parent="1" vertex="1">
          <mxGeometry x="-500" y="917.53" width="40" height="40" as="geometry" />
        </mxCell>
        <mxCell id="nD2JxC32oF_jErjhYnny-79" value="Таблица &quot;Пользователи&quot;" style="html=1;align=center;verticalAlign=top;rounded=1;absoluteArcSize=1;arcSize=10;dashed=0;jiggle=0;strokeColor=#080000;" parent="1" vertex="1">
          <mxGeometry x="-642.5" y="550" width="205" height="30" as="geometry" />
        </mxCell>
        <mxCell id="nD2JxC32oF_jErjhYnny-80" value="Таблица &quot;Корзины&quot;" style="html=1;align=center;verticalAlign=top;rounded=1;absoluteArcSize=1;arcSize=10;dashed=0;jiggle=0;strokeColor=#080000;" parent="1" vertex="1">
          <mxGeometry x="-642.5" y="590" width="205" height="25" as="geometry" />
        </mxCell>
        <mxCell id="nD2JxC32oF_jErjhYnny-105" style="edgeStyle=orthogonalEdgeStyle;rounded=0;comic=1;jiggle=0;orthogonalLoop=1;jettySize=auto;html=1;entryX=0.25;entryY=0;entryDx=0;entryDy=0;entryPerimeter=0;strokeColor=#000000;exitX=0.25;exitY=1;exitDx=0;exitDy=0;exitPerimeter=0;" parent="1" source="nD2JxC32oF_jErjhYnny-73" target="nD2JxC32oF_jErjhYnny-85" edge="1">
          <mxGeometry relative="1" as="geometry" />
        </mxCell>
        <mxCell id="nD2JxC32oF_jErjhYnny-107" value="&amp;lt;&amp;lt;Отображение таблицы&amp;gt;&amp;gt;" style="edgeLabel;html=1;align=center;verticalAlign=middle;resizable=0;points=[];" parent="nD2JxC32oF_jErjhYnny-105" vertex="1" connectable="0">
          <mxGeometry x="-0.6503" y="-1" relative="1" as="geometry">
            <mxPoint x="-39" y="-2" as="offset" />
          </mxGeometry>
        </mxCell>
        <mxCell id="nD2JxC32oF_jErjhYnny-81" value="Таблица &quot;Товары&quot;" style="html=1;align=center;verticalAlign=top;rounded=1;absoluteArcSize=1;arcSize=10;dashed=0;jiggle=0;strokeColor=#080000;" parent="1" vertex="1">
          <mxGeometry x="-642.5" y="620" width="205" height="25" as="geometry" />
        </mxCell>
        <mxCell id="nD2JxC32oF_jErjhYnny-82" value="Таблица &quot;Шаблоны&quot;" style="html=1;align=center;verticalAlign=top;rounded=1;absoluteArcSize=1;arcSize=10;dashed=0;jiggle=0;strokeColor=#080000;" parent="1" vertex="1">
          <mxGeometry x="-642.5" y="485" width="205" height="25" as="geometry" />
        </mxCell>
        <mxCell id="nD2JxC32oF_jErjhYnny-83" value="Таблица &quot;Настройки уведомлений&quot;" style="html=1;align=center;verticalAlign=top;rounded=1;absoluteArcSize=1;arcSize=10;dashed=0;jiggle=0;strokeColor=#080000;" parent="1" vertex="1">
          <mxGeometry x="-642.5" y="517.5" width="205" height="25" as="geometry" />
        </mxCell>
        <mxCell id="nD2JxC32oF_jErjhYnny-100" style="edgeStyle=orthogonalEdgeStyle;rounded=0;comic=1;jiggle=0;orthogonalLoop=1;jettySize=auto;html=1;exitX=0.5;exitY=1;exitDx=0;exitDy=0;exitPerimeter=0;entryX=0.5;entryY=0;entryDx=0;entryDy=0;entryPerimeter=0;strokeColor=#000000;" parent="1" source="nD2JxC32oF_jErjhYnny-85" target="nD2JxC32oF_jErjhYnny-74" edge="1">
          <mxGeometry relative="1" as="geometry" />
        </mxCell>
        <mxCell id="nD2JxC32oF_jErjhYnny-101" value="&amp;lt;&amp;lt;Выход из системы&amp;gt;&amp;gt;" style="edgeLabel;html=1;align=center;verticalAlign=middle;resizable=0;points=[];" parent="nD2JxC32oF_jErjhYnny-100" vertex="1" connectable="0">
          <mxGeometry x="-0.3955" y="2" relative="1" as="geometry">
            <mxPoint as="offset" />
          </mxGeometry>
        </mxCell>
        <mxCell id="nD2JxC32oF_jErjhYnny-106" style="edgeStyle=orthogonalEdgeStyle;rounded=0;comic=1;jiggle=0;orthogonalLoop=1;jettySize=auto;html=1;entryX=0.75;entryY=1;entryDx=0;entryDy=0;entryPerimeter=0;strokeColor=#000000;" parent="1" source="nD2JxC32oF_jErjhYnny-85" target="nD2JxC32oF_jErjhYnny-73" edge="1">
          <mxGeometry relative="1" as="geometry" />
        </mxCell>
        <mxCell id="nD2JxC32oF_jErjhYnny-108" value="&amp;lt;&amp;lt;Выбор таблицы&amp;gt;&amp;gt;" style="edgeLabel;html=1;align=center;verticalAlign=middle;resizable=0;points=[];" parent="nD2JxC32oF_jErjhYnny-106" vertex="1" connectable="0">
          <mxGeometry x="0.7201" y="-2" relative="1" as="geometry">
            <mxPoint as="offset" />
          </mxGeometry>
        </mxCell>
        <mxCell id="nD2JxC32oF_jErjhYnny-85" value="&lt;p style=&quot;margin:0px;margin-top:4px;text-align:center;&quot;&gt;Отображение таблицы&lt;/p&gt;&lt;hr&gt;&lt;p&gt;&lt;/p&gt;&lt;p style=&quot;margin:0px;margin-left:8px;text-align:left;&quot;&gt;do / Обновить отображаемые значения&lt;/p&gt;&lt;p style=&quot;margin:0px;margin-left:8px;text-align:left;&quot;&gt;do /&amp;nbsp;Удаление данных&lt;/p&gt;&lt;p style=&quot;margin:0px;margin-left:8px;text-align:left;&quot;&gt;do / Добавление данных&lt;/p&gt;&lt;p style=&quot;margin:0px;margin-left:8px;text-align:left;&quot;&gt;do /&amp;nbsp;Обновление данных&lt;br&gt;exit / Выход из системы&lt;/p&gt;" style="shape=mxgraph.sysml.simpleState;html=1;overflow=fill;whiteSpace=wrap;align=center;jiggle=0;strokeColor=#080000;" parent="1" vertex="1">
          <mxGeometry x="-580" y="730" width="200" height="130" as="geometry" />
        </mxCell>
        <mxCell id="rrBnnx2WadmqllnFf4yr-3" style="edgeStyle=orthogonalEdgeStyle;rounded=0;comic=1;jiggle=0;orthogonalLoop=1;jettySize=auto;html=1;entryX=0.5;entryY=0;entryDx=0;entryDy=0;strokeColor=#000000;entryPerimeter=0;" parent="1" source="rrBnnx2WadmqllnFf4yr-1" target="Kw9__kutnGEFumvWiqR3-37" edge="1">
          <mxGeometry relative="1" as="geometry">
            <mxPoint x="-2005" y="372.4999999999998" as="targetPoint" />
          </mxGeometry>
        </mxCell>
        <mxCell id="k28_8GWcvLkQVrRJRihw-12" value="&amp;lt;&amp;lt;Вход в систему&amp;gt;&amp;gt;" style="edgeLabel;html=1;align=center;verticalAlign=middle;resizable=0;points=[];" parent="rrBnnx2WadmqllnFf4yr-3" vertex="1" connectable="0">
          <mxGeometry x="-0.2111" relative="1" as="geometry">
            <mxPoint as="offset" />
          </mxGeometry>
        </mxCell>
        <mxCell id="rrBnnx2WadmqllnFf4yr-1" value="" style="shape=ellipse;html=1;fillColor=strokeColor;fontSize=18;fontColor=#ffffff;jiggle=0;strokeColor=#080000;" parent="1" vertex="1">
          <mxGeometry x="-2030" y="240" width="40" height="40" as="geometry" />
        </mxCell>
        <mxCell id="rrBnnx2WadmqllnFf4yr-13" style="edgeStyle=orthogonalEdgeStyle;rounded=0;comic=1;jiggle=0;orthogonalLoop=1;jettySize=auto;html=1;entryX=0.5;entryY=0;entryDx=0;entryDy=0;entryPerimeter=0;strokeColor=#000000;exitX=1;exitY=0.5;exitDx=0;exitDy=0;exitPerimeter=0;" parent="1" source="Kw9__kutnGEFumvWiqR3-37" target="rrBnnx2WadmqllnFf4yr-10" edge="1">
          <mxGeometry relative="1" as="geometry">
            <mxPoint x="-1920" y="428.7499999999998" as="sourcePoint" />
          </mxGeometry>
        </mxCell>
        <mxCell id="k28_8GWcvLkQVrRJRihw-19" value="&amp;lt;&amp;lt;Просмотр личной кабинета&amp;gt;&amp;gt;" style="edgeLabel;html=1;align=center;verticalAlign=middle;resizable=0;points=[];" parent="rrBnnx2WadmqllnFf4yr-13" vertex="1" connectable="0">
          <mxGeometry x="-0.2378" y="2" relative="1" as="geometry">
            <mxPoint as="offset" />
          </mxGeometry>
        </mxCell>
        <mxCell id="rrBnnx2WadmqllnFf4yr-14" style="edgeStyle=orthogonalEdgeStyle;rounded=0;comic=1;jiggle=0;orthogonalLoop=1;jettySize=auto;html=1;entryX=0.5;entryY=0;entryDx=0;entryDy=0;entryPerimeter=0;strokeColor=#000000;exitX=0;exitY=0.25;exitDx=0;exitDy=0;exitPerimeter=0;" parent="1" source="Kw9__kutnGEFumvWiqR3-37" target="rrBnnx2WadmqllnFf4yr-11" edge="1">
          <mxGeometry relative="1" as="geometry">
            <mxPoint x="-2005" y="484.9999999999998" as="sourcePoint" />
            <Array as="points">
              <mxPoint x="-2245" y="403" />
              <mxPoint x="-2490" y="403" />
            </Array>
          </mxGeometry>
        </mxCell>
        <mxCell id="k28_8GWcvLkQVrRJRihw-13" value="&amp;lt;&amp;lt;Создать корзину&amp;gt;&amp;gt;" style="edgeLabel;html=1;align=center;verticalAlign=middle;resizable=0;points=[];" parent="rrBnnx2WadmqllnFf4yr-14" vertex="1" connectable="0">
          <mxGeometry x="0.0605" y="1" relative="1" as="geometry">
            <mxPoint as="offset" />
          </mxGeometry>
        </mxCell>
        <mxCell id="rrBnnx2WadmqllnFf4yr-15" style="edgeStyle=orthogonalEdgeStyle;rounded=0;comic=1;jiggle=0;orthogonalLoop=1;jettySize=auto;html=1;entryX=0.5;entryY=0;entryDx=0;entryDy=0;entryPerimeter=0;strokeColor=#000000;exitX=0;exitY=0.75;exitDx=0;exitDy=0;exitPerimeter=0;" parent="1" source="Kw9__kutnGEFumvWiqR3-37" target="rrBnnx2WadmqllnFf4yr-12" edge="1">
          <mxGeometry relative="1" as="geometry">
            <mxPoint x="-2090" y="428.7499999999998" as="sourcePoint" />
            <Array as="points">
              <mxPoint x="-2130" y="443" />
              <mxPoint x="-2130" y="500" />
              <mxPoint x="-2272" y="500" />
              <mxPoint x="-2272" y="518" />
            </Array>
          </mxGeometry>
        </mxCell>
        <mxCell id="k28_8GWcvLkQVrRJRihw-15" value="&amp;lt;&amp;lt;Выбрать корзину&amp;gt;&amp;gt;" style="edgeLabel;html=1;align=center;verticalAlign=middle;resizable=0;points=[];" parent="rrBnnx2WadmqllnFf4yr-15" vertex="1" connectable="0">
          <mxGeometry x="0.1136" y="-2" relative="1" as="geometry">
            <mxPoint x="23" y="-13" as="offset" />
          </mxGeometry>
        </mxCell>
        <mxCell id="Kw9__kutnGEFumvWiqR3-18" style="edgeStyle=orthogonalEdgeStyle;rounded=0;orthogonalLoop=1;jettySize=auto;html=1;entryX=0.25;entryY=0;entryDx=0;entryDy=0;entryPerimeter=0;" parent="1" source="rrBnnx2WadmqllnFf4yr-10" target="Kw9__kutnGEFumvWiqR3-17" edge="1">
          <mxGeometry relative="1" as="geometry">
            <Array as="points">
              <mxPoint x="-1710" y="840" />
              <mxPoint x="-1715" y="840" />
            </Array>
          </mxGeometry>
        </mxCell>
        <mxCell id="k28_8GWcvLkQVrRJRihw-35" value="&amp;lt;&amp;lt;Просмотр списка шаблонов&amp;gt;&amp;gt;" style="edgeLabel;html=1;align=center;verticalAlign=middle;resizable=0;points=[];" parent="Kw9__kutnGEFumvWiqR3-18" vertex="1" connectable="0">
          <mxGeometry x="0.3481" y="-2" relative="1" as="geometry">
            <mxPoint y="1" as="offset" />
          </mxGeometry>
        </mxCell>
        <mxCell id="Kw9__kutnGEFumvWiqR3-23" value="" style="edgeStyle=orthogonalEdgeStyle;rounded=0;orthogonalLoop=1;jettySize=auto;html=1;exitX=0.75;exitY=1;exitDx=0;exitDy=0;exitPerimeter=0;" parent="1" source="rrBnnx2WadmqllnFf4yr-10" target="Kw9__kutnGEFumvWiqR3-22" edge="1">
          <mxGeometry relative="1" as="geometry" />
        </mxCell>
        <mxCell id="k28_8GWcvLkQVrRJRihw-34" value="&amp;lt;&amp;lt;Изменение настроек&amp;gt;&amp;gt;" style="edgeLabel;html=1;align=center;verticalAlign=middle;resizable=0;points=[];" parent="Kw9__kutnGEFumvWiqR3-23" vertex="1" connectable="0">
          <mxGeometry x="0.4374" relative="1" as="geometry">
            <mxPoint as="offset" />
          </mxGeometry>
        </mxCell>
        <mxCell id="Kw9__kutnGEFumvWiqR3-26" style="edgeStyle=orthogonalEdgeStyle;rounded=0;orthogonalLoop=1;jettySize=auto;html=1;exitX=0;exitY=0;exitDx=2.9;exitDy=67.1;exitPerimeter=0;entryX=0.5;entryY=0;entryDx=0;entryDy=0;entryPerimeter=0;" parent="1" source="rrBnnx2WadmqllnFf4yr-10" target="Kw9__kutnGEFumvWiqR3-25" edge="1">
          <mxGeometry relative="1" as="geometry" />
        </mxCell>
        <mxCell id="k28_8GWcvLkQVrRJRihw-31" value="&amp;lt;&amp;lt;Изменений данных&amp;gt;&amp;gt;" style="edgeLabel;html=1;align=center;verticalAlign=middle;resizable=0;points=[];" parent="Kw9__kutnGEFumvWiqR3-26" vertex="1" connectable="0">
          <mxGeometry x="-0.3285" y="-3" relative="1" as="geometry">
            <mxPoint x="-40" y="-18" as="offset" />
          </mxGeometry>
        </mxCell>
        <mxCell id="Kw9__kutnGEFumvWiqR3-30" style="edgeStyle=orthogonalEdgeStyle;rounded=0;orthogonalLoop=1;jettySize=auto;html=1;entryX=1;entryY=0.75;entryDx=0;entryDy=0;entryPerimeter=0;exitX=0;exitY=0.25;exitDx=0;exitDy=0;exitPerimeter=0;" parent="1" source="rrBnnx2WadmqllnFf4yr-10" target="Kw9__kutnGEFumvWiqR3-37" edge="1">
          <mxGeometry relative="1" as="geometry">
            <mxPoint x="-1920" y="456.8749999999998" as="targetPoint" />
          </mxGeometry>
        </mxCell>
        <mxCell id="k28_8GWcvLkQVrRJRihw-20" value="&amp;lt;&amp;lt;Вернуться в главное меню&amp;gt;&amp;gt;" style="edgeLabel;html=1;align=center;verticalAlign=middle;resizable=0;points=[];" parent="Kw9__kutnGEFumvWiqR3-30" vertex="1" connectable="0">
          <mxGeometry x="-0.4133" y="-2" relative="1" as="geometry">
            <mxPoint x="33" y="-23" as="offset" />
          </mxGeometry>
        </mxCell>
        <mxCell id="Kw9__kutnGEFumvWiqR3-40" style="edgeStyle=orthogonalEdgeStyle;rounded=0;orthogonalLoop=1;jettySize=auto;html=1;exitX=0;exitY=0.75;exitDx=0;exitDy=0;exitPerimeter=0;entryX=0.5;entryY=0;entryDx=0;entryDy=0;" parent="1" source="rrBnnx2WadmqllnFf4yr-10" target="Kw9__kutnGEFumvWiqR3-14" edge="1">
          <mxGeometry relative="1" as="geometry">
            <Array as="points">
              <mxPoint x="-1990" y="515" />
            </Array>
          </mxGeometry>
        </mxCell>
        <mxCell id="rrBnnx2WadmqllnFf4yr-10" value="&lt;p style=&quot;margin:0px;margin-top:4px;text-align:center;&quot;&gt;Просмотр личного кабинета&lt;/p&gt;&lt;hr&gt;&lt;p&gt;&lt;/p&gt;&lt;p style=&quot;margin:0px;margin-left:8px;text-align:left;&quot;&gt;do: Отображение разделов личного кабинета&lt;/p&gt;" style="shape=mxgraph.sysml.simpleState;html=1;overflow=fill;whiteSpace=wrap;align=center;jiggle=0;strokeColor=#080000;" parent="1" vertex="1">
          <mxGeometry x="-1810" y="462.5" width="200" height="70" as="geometry" />
        </mxCell>
        <mxCell id="rrBnnx2WadmqllnFf4yr-16" style="edgeStyle=orthogonalEdgeStyle;rounded=0;comic=1;jiggle=0;orthogonalLoop=1;jettySize=auto;html=1;strokeColor=#000000;entryX=0;entryY=0.5;entryDx=0;entryDy=0;entryPerimeter=0;exitX=0.5;exitY=1;exitDx=0;exitDy=0;exitPerimeter=0;" parent="1" target="rrBnnx2WadmqllnFf4yr-12" edge="1">
          <mxGeometry relative="1" as="geometry">
            <Array as="points">
              <mxPoint x="-2450" y="550" />
              <mxPoint x="-2372" y="550" />
            </Array>
            <mxPoint x="-2450" y="488.13" as="sourcePoint" />
            <mxPoint x="-2412.5" y="539.02" as="targetPoint" />
          </mxGeometry>
        </mxCell>
        <mxCell id="k28_8GWcvLkQVrRJRihw-16" value="&amp;lt;&amp;lt;Переход внутрь&amp;gt;&amp;gt;" style="edgeLabel;html=1;align=center;verticalAlign=middle;resizable=0;points=[];" parent="rrBnnx2WadmqllnFf4yr-16" vertex="1" connectable="0">
          <mxGeometry x="0.1072" y="1" relative="1" as="geometry">
            <mxPoint x="-37" y="-28" as="offset" />
          </mxGeometry>
        </mxCell>
        <mxCell id="Kw9__kutnGEFumvWiqR3-39" style="edgeStyle=orthogonalEdgeStyle;rounded=0;orthogonalLoop=1;jettySize=auto;html=1;exitX=1;exitY=0.25;exitDx=0;exitDy=0;exitPerimeter=0;entryX=0;entryY=0.5;entryDx=0;entryDy=0;entryPerimeter=0;" parent="1" source="rrBnnx2WadmqllnFf4yr-11" target="Kw9__kutnGEFumvWiqR3-37" edge="1">
          <mxGeometry relative="1" as="geometry" />
        </mxCell>
        <mxCell id="k28_8GWcvLkQVrRJRihw-14" value="&amp;lt;&amp;lt;Вернуться в главное меню&amp;gt;&amp;gt;" style="edgeLabel;html=1;align=center;verticalAlign=middle;resizable=0;points=[];" parent="Kw9__kutnGEFumvWiqR3-39" vertex="1" connectable="0">
          <mxGeometry x="-0.3677" y="1" relative="1" as="geometry">
            <mxPoint as="offset" />
          </mxGeometry>
        </mxCell>
        <mxCell id="rrBnnx2WadmqllnFf4yr-11" value="&lt;p style=&quot;margin:0px;margin-top:4px;text-align:center;&quot;&gt;Создание корзины&lt;/p&gt;&lt;hr&gt;&lt;p&gt;&lt;/p&gt;&lt;p style=&quot;margin:0px;margin-left:8px;text-align:left;&quot;&gt;do: Валидация ввода&lt;br&gt;exit: Cоздание&lt;/p&gt;" style="shape=mxgraph.sysml.simpleState;html=1;overflow=fill;whiteSpace=wrap;align=center;jiggle=0;strokeColor=#080000;" parent="1" vertex="1">
          <mxGeometry x="-2510" y="430" width="200" height="70" as="geometry" />
        </mxCell>
        <mxCell id="Kw9__kutnGEFumvWiqR3-3" style="edgeStyle=orthogonalEdgeStyle;rounded=0;orthogonalLoop=1;jettySize=auto;html=1;entryX=0.5;entryY=0;entryDx=0;entryDy=0;entryPerimeter=0;" parent="1" source="rrBnnx2WadmqllnFf4yr-12" target="Kw9__kutnGEFumvWiqR3-2" edge="1">
          <mxGeometry relative="1" as="geometry" />
        </mxCell>
        <mxCell id="k28_8GWcvLkQVrRJRihw-17" value="&amp;lt;&amp;lt;Начать работу с корзиной&amp;gt;&amp;gt;" style="edgeLabel;html=1;align=center;verticalAlign=middle;resizable=0;points=[];" parent="Kw9__kutnGEFumvWiqR3-3" vertex="1" connectable="0">
          <mxGeometry x="0.1242" y="-1" relative="1" as="geometry">
            <mxPoint as="offset" />
          </mxGeometry>
        </mxCell>
        <mxCell id="rrBnnx2WadmqllnFf4yr-12" value="&lt;p style=&quot;margin:0px;margin-top:4px;text-align:center;&quot;&gt;Переход внутрь корзины&lt;/p&gt;&lt;hr&gt;&lt;p&gt;&lt;/p&gt;&lt;p style=&quot;margin:0px;margin-left:8px;text-align:left;&quot;&gt;do: Отображение списка товаров&lt;br&gt;&lt;/p&gt;" style="shape=mxgraph.sysml.simpleState;html=1;overflow=fill;whiteSpace=wrap;align=center;jiggle=0;strokeColor=#080000;" parent="1" vertex="1">
          <mxGeometry x="-2372.5" y="518.39" width="200" height="65" as="geometry" />
        </mxCell>
        <mxCell id="Kw9__kutnGEFumvWiqR3-15" style="edgeStyle=orthogonalEdgeStyle;rounded=0;orthogonalLoop=1;jettySize=auto;html=1;entryX=0;entryY=0.5;entryDx=0;entryDy=0;exitX=0.75;exitY=1;exitDx=0;exitDy=0;exitPerimeter=0;" parent="1" source="Kw9__kutnGEFumvWiqR3-2" target="Kw9__kutnGEFumvWiqR3-14" edge="1">
          <mxGeometry relative="1" as="geometry">
            <Array as="points">
              <mxPoint x="-2117" y="1163" />
            </Array>
          </mxGeometry>
        </mxCell>
        <mxCell id="k28_8GWcvLkQVrRJRihw-36" value="&amp;lt;&amp;lt;Завершение работы&amp;gt;&amp;gt;" style="edgeLabel;html=1;align=center;verticalAlign=middle;resizable=0;points=[];" parent="Kw9__kutnGEFumvWiqR3-15" vertex="1" connectable="0">
          <mxGeometry x="-0.4565" y="-3" relative="1" as="geometry">
            <mxPoint as="offset" />
          </mxGeometry>
        </mxCell>
        <mxCell id="Kw9__kutnGEFumvWiqR3-28" style="edgeStyle=orthogonalEdgeStyle;rounded=0;orthogonalLoop=1;jettySize=auto;html=1;exitX=0.75;exitY=0;exitDx=0;exitDy=0;exitPerimeter=0;entryX=0.25;entryY=1;entryDx=0;entryDy=0;entryPerimeter=0;" parent="1" source="Kw9__kutnGEFumvWiqR3-2" target="Kw9__kutnGEFumvWiqR3-37" edge="1">
          <mxGeometry relative="1" as="geometry">
            <mxPoint x="-2090" y="400.6249999999998" as="targetPoint" />
            <Array as="points">
              <mxPoint x="-2117" y="630" />
              <mxPoint x="-2120" y="630" />
              <mxPoint x="-2120" y="620" />
              <mxPoint x="-2055" y="620" />
            </Array>
          </mxGeometry>
        </mxCell>
        <mxCell id="k28_8GWcvLkQVrRJRihw-18" value="&amp;lt;&amp;lt;Переход в главное меню&amp;gt;&amp;gt;" style="edgeLabel;html=1;align=center;verticalAlign=middle;resizable=0;points=[];" parent="Kw9__kutnGEFumvWiqR3-28" vertex="1" connectable="0">
          <mxGeometry x="0.0097" y="1" relative="1" as="geometry">
            <mxPoint x="-14" y="-34" as="offset" />
          </mxGeometry>
        </mxCell>
        <mxCell id="k28_8GWcvLkQVrRJRihw-2" style="edgeStyle=orthogonalEdgeStyle;rounded=0;orthogonalLoop=1;jettySize=auto;html=1;entryX=1;entryY=0.5;entryDx=0;entryDy=0;entryPerimeter=0;" parent="1" source="Kw9__kutnGEFumvWiqR3-2" target="k28_8GWcvLkQVrRJRihw-1" edge="1">
          <mxGeometry relative="1" as="geometry" />
        </mxCell>
        <mxCell id="k28_8GWcvLkQVrRJRihw-22" value="&amp;lt;&amp;lt;Смотреть список участников&amp;gt;&amp;gt;" style="edgeLabel;html=1;align=center;verticalAlign=middle;resizable=0;points=[];" parent="k28_8GWcvLkQVrRJRihw-2" vertex="1" connectable="0">
          <mxGeometry x="0.1457" y="2" relative="1" as="geometry">
            <mxPoint x="5" y="-91" as="offset" />
          </mxGeometry>
        </mxCell>
        <mxCell id="Kw9__kutnGEFumvWiqR3-2" value="&lt;p style=&quot;margin:0px;margin-top:4px;text-align:center;&quot;&gt;Работа с корзиной&lt;/p&gt;&lt;hr&gt;&lt;p&gt;&lt;/p&gt;&lt;p style=&quot;margin:0px;margin-left:8px;text-align:left;&quot;&gt;&lt;br&gt;&lt;/p&gt;" style="shape=mxgraph.sysml.simpleState;html=1;overflow=fill;whiteSpace=wrap;align=center;" parent="1" vertex="1">
          <mxGeometry x="-2455" y="650" width="450" height="228.74" as="geometry" />
        </mxCell>
        <mxCell id="Kw9__kutnGEFumvWiqR3-1" value="&lt;p style=&quot;margin:0px;margin-top:4px;text-align:center;&quot;&gt;Просмотр списка покупок&lt;/p&gt;&lt;hr&gt;&lt;p&gt;&lt;/p&gt;&lt;p style=&quot;margin:0px;margin-left:8px;text-align:left;&quot;&gt;entry / Вывод истории&lt;br&gt;do / Обновление истории&lt;br&gt;&lt;/p&gt;" style="shape=mxgraph.sysml.simpleState;html=1;overflow=fill;whiteSpace=wrap;align=center;" parent="1" vertex="1">
          <mxGeometry x="-2445" y="720" width="200" height="70" as="geometry" />
        </mxCell>
        <mxCell id="k28_8GWcvLkQVrRJRihw-9" style="edgeStyle=orthogonalEdgeStyle;rounded=0;orthogonalLoop=1;jettySize=auto;html=1;exitX=0.75;exitY=0;exitDx=0;exitDy=0;exitPerimeter=0;entryX=0.75;entryY=1;entryDx=0;entryDy=0;entryPerimeter=0;" parent="1" source="Kw9__kutnGEFumvWiqR3-4" target="k28_8GWcvLkQVrRJRihw-1" edge="1">
          <mxGeometry relative="1" as="geometry">
            <Array as="points">
              <mxPoint x="-2200" y="1090" />
              <mxPoint x="-2249" y="1090" />
              <mxPoint x="-2249" y="1080" />
              <mxPoint x="-2356" y="1080" />
            </Array>
          </mxGeometry>
        </mxCell>
        <mxCell id="k28_8GWcvLkQVrRJRihw-26" value="&amp;lt;&amp;lt;Результат добавления&amp;gt;&amp;gt;" style="edgeLabel;html=1;align=center;verticalAlign=middle;resizable=0;points=[];" parent="k28_8GWcvLkQVrRJRihw-9" vertex="1" connectable="0">
          <mxGeometry x="-0.5388" y="-1" relative="1" as="geometry">
            <mxPoint x="13" y="-49" as="offset" />
          </mxGeometry>
        </mxCell>
        <mxCell id="Kw9__kutnGEFumvWiqR3-4" value="&lt;p style=&quot;margin:0px;margin-top:4px;text-align:center;&quot;&gt;Добавление участников корзин&lt;/p&gt;&lt;hr&gt;&lt;p&gt;&lt;/p&gt;&lt;p style=&quot;margin:0px;margin-left:8px;text-align:left;&quot;&gt;&lt;span style=&quot;background-color: initial;&quot;&gt;exit / Добавление участника&lt;/span&gt;&lt;br&gt;&lt;/p&gt;" style="shape=mxgraph.sysml.simpleState;html=1;overflow=fill;whiteSpace=wrap;align=center;" parent="1" vertex="1">
          <mxGeometry x="-2350" y="1142.53" width="200" height="60" as="geometry" />
        </mxCell>
        <mxCell id="Kw9__kutnGEFumvWiqR3-7" value="&lt;p style=&quot;margin:0px;margin-top:4px;text-align:center;&quot;&gt;Добавить товары в корзину&lt;/p&gt;&lt;hr&gt;&lt;p&gt;&lt;/p&gt;&lt;p style=&quot;margin:0px;margin-left:8px;text-align:left;&quot;&gt;do / Валидация ввода&lt;br&gt;exit / Добавление товара&lt;/p&gt;" style="shape=mxgraph.sysml.simpleState;html=1;overflow=fill;whiteSpace=wrap;align=center;" parent="1" vertex="1">
          <mxGeometry x="-2445" y="800" width="200" height="70" as="geometry" />
        </mxCell>
        <mxCell id="Kw9__kutnGEFumvWiqR3-9" value="&lt;p style=&quot;margin:0px;margin-top:4px;text-align:center;&quot;&gt;Изменить товары&lt;/p&gt;&lt;hr&gt;&lt;p&gt;&lt;/p&gt;&lt;p style=&quot;margin:0px;margin-left:8px;text-align:left;&quot;&gt;do / Валидация ввода&lt;br&gt;exit / Применение изменений&lt;br&gt;&lt;/p&gt;" style="shape=mxgraph.sysml.simpleState;html=1;overflow=fill;whiteSpace=wrap;align=center;" parent="1" vertex="1">
          <mxGeometry x="-2225" y="750" width="200" height="70" as="geometry" />
        </mxCell>
        <mxCell id="Kw9__kutnGEFumvWiqR3-13" value="" style="shape=mxgraph.sysml.actFinal;html=1;verticalLabelPosition=bottom;labelBackgroundColor=#ffffff;verticalAlign=top;" parent="1" vertex="1">
          <mxGeometry x="-2010" y="1270" width="40" height="40" as="geometry" />
        </mxCell>
        <mxCell id="Kw9__kutnGEFumvWiqR3-16" style="edgeStyle=orthogonalEdgeStyle;rounded=0;orthogonalLoop=1;jettySize=auto;html=1;entryX=0.5;entryY=0;entryDx=0;entryDy=0;entryPerimeter=0;" parent="1" source="Kw9__kutnGEFumvWiqR3-14" target="Kw9__kutnGEFumvWiqR3-13" edge="1">
          <mxGeometry relative="1" as="geometry" />
        </mxCell>
        <mxCell id="k28_8GWcvLkQVrRJRihw-28" value="&amp;lt;&amp;lt;Выход из системы&amp;gt;&amp;gt;" style="edgeLabel;html=1;align=center;verticalAlign=middle;resizable=0;points=[];" parent="Kw9__kutnGEFumvWiqR3-16" vertex="1" connectable="0">
          <mxGeometry x="0.2194" y="-2" relative="1" as="geometry">
            <mxPoint as="offset" />
          </mxGeometry>
        </mxCell>
        <mxCell id="Kw9__kutnGEFumvWiqR3-14" value="Завершение работы" style="shape=rect;rounded=1;html=1;whiteSpace=wrap;align=center;" parent="1" vertex="1">
          <mxGeometry x="-2050" y="1142.53" width="120" height="40" as="geometry" />
        </mxCell>
        <mxCell id="Kw9__kutnGEFumvWiqR3-20" style="edgeStyle=orthogonalEdgeStyle;rounded=0;orthogonalLoop=1;jettySize=auto;html=1;entryX=0.75;entryY=0;entryDx=0;entryDy=0;entryPerimeter=0;exitX=1;exitY=0.75;exitDx=0;exitDy=0;exitPerimeter=0;" parent="1" source="Kw9__kutnGEFumvWiqR3-17" target="Kw9__kutnGEFumvWiqR3-19" edge="1">
          <mxGeometry relative="1" as="geometry" />
        </mxCell>
        <mxCell id="k28_8GWcvLkQVrRJRihw-38" value="&amp;lt;&amp;lt;Создать шаблон&amp;gt;&amp;gt;" style="edgeLabel;html=1;align=center;verticalAlign=middle;resizable=0;points=[];" parent="Kw9__kutnGEFumvWiqR3-20" vertex="1" connectable="0">
          <mxGeometry x="0.304" y="-2" relative="1" as="geometry">
            <mxPoint as="offset" />
          </mxGeometry>
        </mxCell>
        <mxCell id="Kw9__kutnGEFumvWiqR3-29" style="edgeStyle=orthogonalEdgeStyle;rounded=0;orthogonalLoop=1;jettySize=auto;html=1;entryX=1;entryY=0.5;entryDx=0;entryDy=0;entryPerimeter=0;exitX=0.75;exitY=0;exitDx=0;exitDy=0;exitPerimeter=0;" parent="1" source="Kw9__kutnGEFumvWiqR3-17" target="rrBnnx2WadmqllnFf4yr-10" edge="1">
          <mxGeometry relative="1" as="geometry">
            <mxPoint x="-1610" y="950" as="sourcePoint" />
            <mxPoint x="-1920" y="400.6249999999998" as="targetPoint" />
            <Array as="points">
              <mxPoint x="-1615" y="880" />
              <mxPoint x="-1450" y="880" />
              <mxPoint x="-1450" y="500" />
              <mxPoint x="-1610" y="500" />
            </Array>
          </mxGeometry>
        </mxCell>
        <mxCell id="Kw9__kutnGEFumvWiqR3-31" style="edgeStyle=orthogonalEdgeStyle;rounded=0;orthogonalLoop=1;jettySize=auto;html=1;entryX=0.5;entryY=0;entryDx=0;entryDy=0;entryPerimeter=0;exitX=0;exitY=0;exitDx=197.1;exitDy=2.9;exitPerimeter=0;" parent="1" source="Kw9__kutnGEFumvWiqR3-17" target="Kw9__kutnGEFumvWiqR3-21" edge="1">
          <mxGeometry relative="1" as="geometry">
            <mxPoint x="-1570" y="950" as="sourcePoint" />
            <Array as="points">
              <mxPoint x="-1570" y="955" />
              <mxPoint x="-1570" y="900" />
              <mxPoint x="-1350" y="900" />
            </Array>
          </mxGeometry>
        </mxCell>
        <mxCell id="k28_8GWcvLkQVrRJRihw-29" value="&amp;lt;&amp;lt;Изменить шаблон&amp;gt;&amp;gt;" style="edgeLabel;html=1;align=center;verticalAlign=middle;resizable=0;points=[];" parent="Kw9__kutnGEFumvWiqR3-31" vertex="1" connectable="0">
          <mxGeometry x="0.4385" relative="1" as="geometry">
            <mxPoint as="offset" />
          </mxGeometry>
        </mxCell>
        <mxCell id="Kw9__kutnGEFumvWiqR3-42" style="edgeStyle=orthogonalEdgeStyle;rounded=0;orthogonalLoop=1;jettySize=auto;html=1;entryX=0.5;entryY=0;entryDx=0;entryDy=0;exitX=0;exitY=0.25;exitDx=0;exitDy=0;exitPerimeter=0;" parent="1" source="Kw9__kutnGEFumvWiqR3-17" target="Kw9__kutnGEFumvWiqR3-14" edge="1">
          <mxGeometry relative="1" as="geometry">
            <mxPoint x="-1920" y="1200" as="targetPoint" />
          </mxGeometry>
        </mxCell>
        <mxCell id="Kw9__kutnGEFumvWiqR3-17" value="&lt;p style=&quot;margin:0px;margin-top:4px;text-align:center;&quot;&gt;Просмотр пользовательских шаблонов&lt;/p&gt;&lt;hr&gt;&lt;p&gt;&lt;/p&gt;&lt;p style=&quot;margin:0px;margin-left:8px;text-align:left;&quot;&gt;do / Отображение пользовательских шаблонов&lt;br&gt;&lt;/p&gt;&lt;p style=&quot;margin:0px;margin-left:8px;text-align:left;&quot;&gt;do / Удление шаблонов&lt;/p&gt;" style="shape=mxgraph.sysml.simpleState;html=1;overflow=fill;whiteSpace=wrap;align=center;" parent="1" vertex="1">
          <mxGeometry x="-1765" y="930" width="200" height="102.53" as="geometry" />
        </mxCell>
        <mxCell id="Kw9__kutnGEFumvWiqR3-33" style="edgeStyle=orthogonalEdgeStyle;rounded=0;orthogonalLoop=1;jettySize=auto;html=1;exitX=0.25;exitY=0;exitDx=0;exitDy=0;exitPerimeter=0;entryX=0.25;entryY=1;entryDx=0;entryDy=0;entryPerimeter=0;" parent="1" source="Kw9__kutnGEFumvWiqR3-19" target="Kw9__kutnGEFumvWiqR3-17" edge="1">
          <mxGeometry relative="1" as="geometry">
            <Array as="points">
              <mxPoint x="-1650" y="1080" />
              <mxPoint x="-1715" y="1080" />
            </Array>
          </mxGeometry>
        </mxCell>
        <mxCell id="k28_8GWcvLkQVrRJRihw-39" value="&amp;lt;&amp;lt;Результат создания&amp;gt;&amp;gt;" style="edgeLabel;html=1;align=center;verticalAlign=middle;resizable=0;points=[];" parent="Kw9__kutnGEFumvWiqR3-33" vertex="1" connectable="0">
          <mxGeometry x="0.6549" y="1" relative="1" as="geometry">
            <mxPoint x="26" y="9" as="offset" />
          </mxGeometry>
        </mxCell>
        <mxCell id="Kw9__kutnGEFumvWiqR3-19" value="&lt;p style=&quot;margin:0px;margin-top:4px;text-align:center;&quot;&gt;Создание Шаблона&lt;/p&gt;&lt;hr&gt;&lt;p&gt;&lt;/p&gt;&lt;p style=&quot;margin:0px;margin-left:8px;text-align:left;&quot;&gt;do / Валидация ввода&lt;br&gt;exit / Создание шаблона&lt;/p&gt;" style="shape=mxgraph.sysml.simpleState;html=1;overflow=fill;whiteSpace=wrap;align=center;" parent="1" vertex="1">
          <mxGeometry x="-1700" y="1127.53" width="200" height="70" as="geometry" />
        </mxCell>
        <mxCell id="Kw9__kutnGEFumvWiqR3-32" style="edgeStyle=orthogonalEdgeStyle;rounded=0;orthogonalLoop=1;jettySize=auto;html=1;exitX=0;exitY=0.5;exitDx=0;exitDy=0;exitPerimeter=0;entryX=1;entryY=0.5;entryDx=0;entryDy=0;entryPerimeter=0;" parent="1" source="Kw9__kutnGEFumvWiqR3-21" target="Kw9__kutnGEFumvWiqR3-17" edge="1">
          <mxGeometry relative="1" as="geometry" />
        </mxCell>
        <mxCell id="k28_8GWcvLkQVrRJRihw-30" value="&amp;lt;&amp;lt;Результат&amp;gt;&amp;gt;" style="edgeLabel;html=1;align=center;verticalAlign=middle;resizable=0;points=[];" parent="Kw9__kutnGEFumvWiqR3-32" vertex="1" connectable="0">
          <mxGeometry x="-0.3286" y="-5" relative="1" as="geometry">
            <mxPoint x="-1" as="offset" />
          </mxGeometry>
        </mxCell>
        <mxCell id="Kw9__kutnGEFumvWiqR3-21" value="&lt;p style=&quot;margin:0px;margin-top:4px;text-align:center;&quot;&gt;Изменить шаблон&lt;/p&gt;&lt;hr&gt;&lt;p&gt;&lt;/p&gt;&lt;p style=&quot;margin:0px;margin-left:8px;text-align:left;&quot;&gt;entry / Вывод текущих данных шаблона&lt;br&gt;exit / Применение измений&lt;/p&gt;" style="shape=mxgraph.sysml.simpleState;html=1;overflow=fill;whiteSpace=wrap;align=center;" parent="1" vertex="1">
          <mxGeometry x="-1450" y="917.53" width="200" height="82.5" as="geometry" />
        </mxCell>
        <mxCell id="Kw9__kutnGEFumvWiqR3-24" style="edgeStyle=orthogonalEdgeStyle;rounded=0;orthogonalLoop=1;jettySize=auto;html=1;entryX=0;entryY=0;entryDx=197.1;entryDy=67.1;entryPerimeter=0;exitX=0.75;exitY=0;exitDx=0;exitDy=0;exitPerimeter=0;" parent="1" source="Kw9__kutnGEFumvWiqR3-22" target="rrBnnx2WadmqllnFf4yr-10" edge="1">
          <mxGeometry relative="1" as="geometry">
            <Array as="points">
              <mxPoint x="-1560" y="690" />
              <mxPoint x="-1560" y="570" />
              <mxPoint x="-1613" y="570" />
            </Array>
          </mxGeometry>
        </mxCell>
        <mxCell id="k28_8GWcvLkQVrRJRihw-33" value="&amp;lt;&amp;lt;Просмотр кабинета&amp;gt;&amp;gt;" style="edgeLabel;html=1;align=center;verticalAlign=middle;resizable=0;points=[];" parent="Kw9__kutnGEFumvWiqR3-24" vertex="1" connectable="0">
          <mxGeometry x="0.0802" y="-3" relative="1" as="geometry">
            <mxPoint as="offset" />
          </mxGeometry>
        </mxCell>
        <mxCell id="Kw9__kutnGEFumvWiqR3-43" style="edgeStyle=orthogonalEdgeStyle;rounded=0;orthogonalLoop=1;jettySize=auto;html=1;entryX=0.5;entryY=0;entryDx=0;entryDy=0;" parent="1" source="Kw9__kutnGEFumvWiqR3-22" target="Kw9__kutnGEFumvWiqR3-14" edge="1">
          <mxGeometry relative="1" as="geometry">
            <Array as="points">
              <mxPoint x="-1590" y="860" />
              <mxPoint x="-1990" y="860" />
            </Array>
          </mxGeometry>
        </mxCell>
        <mxCell id="Kw9__kutnGEFumvWiqR3-22" value="&lt;p style=&quot;margin:0px;margin-top:4px;text-align:center;&quot;&gt;Измение пользовательских настроек&lt;/p&gt;&lt;hr&gt;&lt;p&gt;&lt;/p&gt;&lt;p style=&quot;margin:0px;margin-left:8px;text-align:left;&quot;&gt;entry / Отображение текущих настроек&lt;br&gt;exit / Применение изменений&lt;/p&gt;" style="shape=mxgraph.sysml.simpleState;html=1;overflow=fill;whiteSpace=wrap;align=center;" parent="1" vertex="1">
          <mxGeometry x="-1690" y="690" width="200" height="100" as="geometry" />
        </mxCell>
        <mxCell id="Kw9__kutnGEFumvWiqR3-27" style="edgeStyle=orthogonalEdgeStyle;rounded=0;orthogonalLoop=1;jettySize=auto;html=1;exitX=0.75;exitY=0;exitDx=0;exitDy=0;exitPerimeter=0;entryX=0.25;entryY=1;entryDx=0;entryDy=0;entryPerimeter=0;" parent="1" source="Kw9__kutnGEFumvWiqR3-25" target="rrBnnx2WadmqllnFf4yr-10" edge="1">
          <mxGeometry relative="1" as="geometry">
            <mxPoint x="-1740" y="540" as="targetPoint" />
          </mxGeometry>
        </mxCell>
        <mxCell id="k28_8GWcvLkQVrRJRihw-32" value="&amp;lt;&amp;lt;Просмотр кабинета&amp;gt;&amp;gt;" style="edgeLabel;html=1;align=center;verticalAlign=middle;resizable=0;points=[];" parent="Kw9__kutnGEFumvWiqR3-27" vertex="1" connectable="0">
          <mxGeometry x="-0.3362" y="1" relative="1" as="geometry">
            <mxPoint x="31" y="19" as="offset" />
          </mxGeometry>
        </mxCell>
        <mxCell id="Kw9__kutnGEFumvWiqR3-44" style="edgeStyle=orthogonalEdgeStyle;rounded=0;orthogonalLoop=1;jettySize=auto;html=1;entryX=0.5;entryY=0;entryDx=0;entryDy=0;" parent="1" source="Kw9__kutnGEFumvWiqR3-25" target="Kw9__kutnGEFumvWiqR3-14" edge="1">
          <mxGeometry relative="1" as="geometry" />
        </mxCell>
        <mxCell id="Kw9__kutnGEFumvWiqR3-25" value="&lt;p style=&quot;margin:0px;margin-top:4px;text-align:center;&quot;&gt;Изменеие личных данных&lt;/p&gt;&lt;hr&gt;&lt;p&gt;&lt;/p&gt;&lt;p style=&quot;margin:0px;margin-left:8px;text-align:left;&quot;&gt;entry / Отобразить скрытый пароль&lt;br&gt;do / Валидация изменяемых данных&lt;br&gt;exit / Применение изменений&lt;/p&gt;" style="shape=mxgraph.sysml.simpleState;html=1;overflow=fill;whiteSpace=wrap;align=center;" parent="1" vertex="1">
          <mxGeometry x="-1920" y="640" width="200" height="110" as="geometry" />
        </mxCell>
        <mxCell id="Kw9__kutnGEFumvWiqR3-41" style="edgeStyle=orthogonalEdgeStyle;rounded=0;orthogonalLoop=1;jettySize=auto;html=1;entryX=0.5;entryY=0;entryDx=0;entryDy=0;" parent="1" source="Kw9__kutnGEFumvWiqR3-37" target="Kw9__kutnGEFumvWiqR3-14" edge="1">
          <mxGeometry relative="1" as="geometry">
            <mxPoint x="-1990" y="1279.5238095238096" as="targetPoint" />
            <Array as="points">
              <mxPoint x="-1990" y="660" />
              <mxPoint x="-1990" y="660" />
            </Array>
          </mxGeometry>
        </mxCell>
        <mxCell id="k28_8GWcvLkQVrRJRihw-37" value="&amp;lt;&amp;lt;Завершение работы&amp;gt;&amp;gt;" style="edgeLabel;html=1;align=center;verticalAlign=middle;resizable=0;points=[];" parent="Kw9__kutnGEFumvWiqR3-41" vertex="1" connectable="0">
          <mxGeometry x="0.7426" relative="1" as="geometry">
            <mxPoint as="offset" />
          </mxGeometry>
        </mxCell>
        <mxCell id="Kw9__kutnGEFumvWiqR3-37" value="&lt;p style=&quot;margin:0px;margin-top:4px;text-align:center;&quot;&gt;Просмотр списка корзин&lt;/p&gt;&lt;hr&gt;&lt;p&gt;&lt;/p&gt;&lt;p style=&quot;margin:0px;margin-left:8px;text-align:left;&quot;&gt;do: Отображение пользовательских корзин&lt;/p&gt;" style="shape=mxgraph.sysml.simpleState;html=1;overflow=fill;whiteSpace=wrap;align=center;jiggle=0;strokeColor=#080000;" parent="1" vertex="1">
          <mxGeometry x="-2100" y="382.5" width="180" height="80" as="geometry" />
        </mxCell>
        <mxCell id="Kw9__kutnGEFumvWiqR3-53" style="edgeStyle=orthogonalEdgeStyle;rounded=0;orthogonalLoop=1;jettySize=auto;html=1;exitX=0.5;exitY=1;exitDx=0;exitDy=0;exitPerimeter=0;entryX=0.5;entryY=0;entryDx=0;entryDy=0;" parent="1" source="Kw9__kutnGEFumvWiqR3-47" target="nD2JxC32oF_jErjhYnny-67" edge="1">
          <mxGeometry relative="1" as="geometry" />
        </mxCell>
        <mxCell id="Kw9__kutnGEFumvWiqR3-47" value="&lt;p style=&quot;margin:0px;margin-top:4px;text-align:center;&quot;&gt;Ввод логина и пароля&lt;/p&gt;&lt;hr&gt;&lt;p style=&quot;margin:0px;margin-left:8px;text-align:left;&quot;&gt;do / символы пароля отображать в виде &quot;*&quot;&lt;br&gt;&lt;br&gt;&lt;/p&gt;" style="shape=mxgraph.sysml.simpleState;html=1;overflow=fill;whiteSpace=wrap;align=center;jiggle=0;strokeColor=#080000;" parent="1" vertex="1">
          <mxGeometry x="280" y="200" width="250" height="60" as="geometry" />
        </mxCell>
        <mxCell id="Kw9__kutnGEFumvWiqR3-56" value="&lt;p style=&quot;margin:0px;margin-top:4px;text-align:center;&quot;&gt;Выход из системы&lt;/p&gt;&lt;hr&gt;&lt;p style=&quot;margin:0px;margin-left:8px;text-align:left;&quot;&gt;do/ Инвалидация токена&lt;br&gt;&lt;/p&gt;" style="shape=mxgraph.sysml.simpleState;html=1;overflow=fill;whiteSpace=wrap;align=center;jiggle=0;strokeColor=#080000;" parent="1" vertex="1">
          <mxGeometry x="320" y="555" width="170" height="60" as="geometry" />
        </mxCell>
        <mxCell id="pcf_KDZU3Iva-soeFCws-5" value="&lt;span style=&quot;font-size: 31px;&quot;&gt;Настройка изначальных настроек пользователя&lt;/span&gt;" style="text;html=1;strokeColor=none;fillColor=none;align=center;verticalAlign=middle;whiteSpace=wrap;rounded=0;" parent="1" vertex="1">
          <mxGeometry x="-2350" y="2350" width="590" height="160" as="geometry" />
        </mxCell>
        <mxCell id="pcf_KDZU3Iva-soeFCws-7" value="" style="group;movable=1;resizable=1;rotatable=1;deletable=1;editable=1;locked=0;connectable=1;" parent="1" vertex="1" connectable="0">
          <mxGeometry x="-2800" y="2470" width="1680" height="470" as="geometry" />
        </mxCell>
        <mxCell id="pcf_KDZU3Iva-soeFCws-8" value="" style="group;movable=1;resizable=1;rotatable=1;deletable=1;editable=1;locked=0;connectable=1;" parent="pcf_KDZU3Iva-soeFCws-7" vertex="1" connectable="0">
          <mxGeometry width="1680" height="470" as="geometry" />
        </mxCell>
        <mxCell id="pcf_KDZU3Iva-soeFCws-2" value="Front" style="swimlane;horizontal=0;whiteSpace=wrap;html=1;movable=1;resizable=1;rotatable=1;deletable=1;editable=1;locked=0;connectable=1;" parent="pcf_KDZU3Iva-soeFCws-8" vertex="1">
          <mxGeometry width="1680.0000000000002" height="270" as="geometry" />
        </mxCell>
        <mxCell id="pcf_KDZU3Iva-soeFCws-3" value="Backend" style="swimlane;horizontal=0;whiteSpace=wrap;html=1;" parent="pcf_KDZU3Iva-soeFCws-8" vertex="1">
          <mxGeometry y="270" width="1680.0000000000002" height="200" as="geometry" />
        </mxCell>
        <mxCell id="pcf_KDZU3Iva-soeFCws-23" style="edgeStyle=orthogonalEdgeStyle;rounded=0;orthogonalLoop=1;jettySize=auto;html=1;entryX=0;entryY=0.5;entryDx=0;entryDy=0;" parent="1" source="pcf_KDZU3Iva-soeFCws-4" target="pcf_KDZU3Iva-soeFCws-22" edge="1">
          <mxGeometry relative="1" as="geometry" />
        </mxCell>
        <mxCell id="pcf_KDZU3Iva-soeFCws-4" value="" style="shape=ellipse;html=1;fillColor=strokeColor;strokeWidth=2;verticalLabelPosition=bottom;verticalAlignment=top;perimeter=ellipsePerimeter;movable=1;resizable=1;rotatable=1;deletable=1;editable=1;locked=0;connectable=1;" parent="1" vertex="1">
          <mxGeometry x="-2750" y="2560" width="40" height="40" as="geometry" />
        </mxCell>
        <mxCell id="pcf_KDZU3Iva-soeFCws-15" style="edgeStyle=orthogonalEdgeStyle;rounded=0;orthogonalLoop=1;jettySize=auto;html=1;entryX=0.5;entryY=0;entryDx=0;entryDy=0;" parent="1" source="pcf_KDZU3Iva-soeFCws-6" target="pcf_KDZU3Iva-soeFCws-14" edge="1">
          <mxGeometry relative="1" as="geometry" />
        </mxCell>
        <mxCell id="pcf_KDZU3Iva-soeFCws-16" value="&lt;font style=&quot;font-size: 12px;&quot;&gt;GET /api/start/configuration&lt;/font&gt;" style="edgeLabel;html=1;align=center;verticalAlign=middle;resizable=0;points=[];" parent="pcf_KDZU3Iva-soeFCws-15" vertex="1" connectable="0">
          <mxGeometry x="-0.2098" y="1" relative="1" as="geometry">
            <mxPoint y="83" as="offset" />
          </mxGeometry>
        </mxCell>
        <mxCell id="pcf_KDZU3Iva-soeFCws-6" value="Просмотр списка начальных конфигураций" style="shape=rect;html=1;rounded=1;whiteSpace=wrap;align=center;" parent="1" vertex="1">
          <mxGeometry x="-2332.5" y="2610" width="120" height="40" as="geometry" />
        </mxCell>
        <mxCell id="pcf_KDZU3Iva-soeFCws-18" style="edgeStyle=orthogonalEdgeStyle;rounded=0;orthogonalLoop=1;jettySize=auto;html=1;entryX=0;entryY=0.5;entryDx=0;entryDy=0;" parent="1" source="pcf_KDZU3Iva-soeFCws-14" target="pcf_KDZU3Iva-soeFCws-19" edge="1">
          <mxGeometry relative="1" as="geometry">
            <mxPoint x="-2142.5" y="2890" as="targetPoint" />
          </mxGeometry>
        </mxCell>
        <mxCell id="pcf_KDZU3Iva-soeFCws-14" value="Запрос списка начальных конфигураций" style="shape=rect;html=1;rounded=1;whiteSpace=wrap;align=center;" parent="1" vertex="1">
          <mxGeometry x="-2322.5" y="2810" width="100" height="80" as="geometry" />
        </mxCell>
        <mxCell id="pcf_KDZU3Iva-soeFCws-30" style="edgeStyle=orthogonalEdgeStyle;rounded=0;orthogonalLoop=1;jettySize=auto;html=1;entryX=0;entryY=0.5;entryDx=0;entryDy=0;" parent="1" source="pcf_KDZU3Iva-soeFCws-17" target="pcf_KDZU3Iva-soeFCws-29" edge="1">
          <mxGeometry relative="1" as="geometry" />
        </mxCell>
        <mxCell id="pcf_KDZU3Iva-soeFCws-17" value="Экраны заполнения начальных параметров" style="shape=rect;html=1;rounded=1;whiteSpace=wrap;align=center;" parent="1" vertex="1">
          <mxGeometry x="-2175" y="2600" width="125" height="60" as="geometry" />
        </mxCell>
        <mxCell id="pcf_KDZU3Iva-soeFCws-20" style="edgeStyle=orthogonalEdgeStyle;rounded=0;orthogonalLoop=1;jettySize=auto;html=1;entryX=0.5;entryY=1;entryDx=0;entryDy=0;" parent="1" source="pcf_KDZU3Iva-soeFCws-19" target="pcf_KDZU3Iva-soeFCws-17" edge="1">
          <mxGeometry relative="1" as="geometry" />
        </mxCell>
        <mxCell id="pcf_KDZU3Iva-soeFCws-19" value="Передача списка параметров" style="shape=rect;html=1;rounded=1;whiteSpace=wrap;align=center;" parent="1" vertex="1">
          <mxGeometry x="-2162.5" y="2820" width="100" height="60" as="geometry" />
        </mxCell>
        <mxCell id="pcf_KDZU3Iva-soeFCws-26" style="edgeStyle=orthogonalEdgeStyle;rounded=0;orthogonalLoop=1;jettySize=auto;html=1;entryX=0.5;entryY=0;entryDx=0;entryDy=0;" parent="1" source="pcf_KDZU3Iva-soeFCws-21" target="pcf_KDZU3Iva-soeFCws-6" edge="1">
          <mxGeometry relative="1" as="geometry" />
        </mxCell>
        <mxCell id="pcf_KDZU3Iva-soeFCws-27" style="edgeStyle=orthogonalEdgeStyle;rounded=0;orthogonalLoop=1;jettySize=auto;html=1;exitX=0.5;exitY=0;exitDx=0;exitDy=0;entryX=0;entryY=0.5;entryDx=0;entryDy=0;" parent="1" source="pcf_KDZU3Iva-soeFCws-21" target="pcf_KDZU3Iva-soeFCws-28" edge="1">
          <mxGeometry relative="1" as="geometry">
            <mxPoint x="-1819.1666666666667" y="2540" as="targetPoint" />
          </mxGeometry>
        </mxCell>
        <mxCell id="pcf_KDZU3Iva-soeFCws-24" style="edgeStyle=orthogonalEdgeStyle;rounded=0;orthogonalLoop=1;jettySize=auto;html=1;" parent="1" source="pcf_KDZU3Iva-soeFCws-22" target="pcf_KDZU3Iva-soeFCws-21" edge="1">
          <mxGeometry relative="1" as="geometry" />
        </mxCell>
        <mxCell id="pcf_KDZU3Iva-soeFCws-22" value="Уточнить у пользователя нужны ли начальные настройки&amp;nbsp;&amp;nbsp;" style="shape=rect;html=1;rounded=1;whiteSpace=wrap;align=center;" parent="1" vertex="1">
          <mxGeometry x="-2650" y="2550" width="130" height="60" as="geometry" />
        </mxCell>
        <mxCell id="pcf_KDZU3Iva-soeFCws-25" value="" style="shape=umlDestroy;whiteSpace=wrap;html=1;strokeWidth=3;targetShapes=umlLifeline;" parent="1" vertex="1">
          <mxGeometry x="-2455" y="2565" width="30" height="30" as="geometry" />
        </mxCell>
        <mxCell id="pcf_KDZU3Iva-soeFCws-32" style="edgeStyle=orthogonalEdgeStyle;rounded=0;orthogonalLoop=1;jettySize=auto;html=1;entryX=0.5;entryY=0;entryDx=0;entryDy=0;" parent="1" source="pcf_KDZU3Iva-soeFCws-28" target="pcf_KDZU3Iva-soeFCws-29" edge="1">
          <mxGeometry relative="1" as="geometry" />
        </mxCell>
        <mxCell id="pcf_KDZU3Iva-soeFCws-28" value="Задать значения по умолчанию" style="shape=rect;html=1;rounded=1;whiteSpace=wrap;align=center;" parent="1" vertex="1">
          <mxGeometry x="-1980" y="2500" width="130" height="50" as="geometry" />
        </mxCell>
        <mxCell id="pcf_KDZU3Iva-soeFCws-34" style="edgeStyle=orthogonalEdgeStyle;rounded=0;orthogonalLoop=1;jettySize=auto;html=1;entryX=0.5;entryY=0;entryDx=0;entryDy=0;" parent="1" source="pcf_KDZU3Iva-soeFCws-29" target="pcf_KDZU3Iva-soeFCws-33" edge="1">
          <mxGeometry relative="1" as="geometry" />
        </mxCell>
        <mxCell id="pcf_KDZU3Iva-soeFCws-35" value="&lt;font style=&quot;font-size: 12px;&quot;&gt;POST /api/start/configuration&lt;/font&gt;" style="edgeLabel;html=1;align=center;verticalAlign=middle;resizable=0;points=[];" parent="pcf_KDZU3Iva-soeFCws-34" vertex="1" connectable="0">
          <mxGeometry x="0.329" y="2" relative="1" as="geometry">
            <mxPoint as="offset" />
          </mxGeometry>
        </mxCell>
        <mxCell id="pcf_KDZU3Iva-soeFCws-29" value="Сохранение пользовательских настроек" style="shape=rect;html=1;rounded=1;whiteSpace=wrap;align=center;" parent="1" vertex="1">
          <mxGeometry x="-1980" y="2600" width="130" height="60" as="geometry" />
        </mxCell>
        <mxCell id="pcf_KDZU3Iva-soeFCws-38" style="edgeStyle=orthogonalEdgeStyle;rounded=0;orthogonalLoop=1;jettySize=auto;html=1;entryX=0;entryY=0.5;entryDx=0;entryDy=0;" parent="1" source="pcf_KDZU3Iva-soeFCws-33" target="pcf_KDZU3Iva-soeFCws-36" edge="1">
          <mxGeometry relative="1" as="geometry" />
        </mxCell>
        <mxCell id="pcf_KDZU3Iva-soeFCws-33" value="Запрос на сохранение пользовательских настроек" style="shape=rect;html=1;rounded=1;whiteSpace=wrap;align=center;" parent="1" vertex="1">
          <mxGeometry x="-1980" y="2815" width="130" height="70" as="geometry" />
        </mxCell>
        <mxCell id="pcf_KDZU3Iva-soeFCws-42" style="edgeStyle=orthogonalEdgeStyle;rounded=0;orthogonalLoop=1;jettySize=auto;html=1;entryX=0;entryY=0.5;entryDx=0;entryDy=0;" parent="1" source="pcf_KDZU3Iva-soeFCws-36" target="pcf_KDZU3Iva-soeFCws-41" edge="1">
          <mxGeometry relative="1" as="geometry" />
        </mxCell>
        <mxCell id="pcf_KDZU3Iva-soeFCws-36" value="Сохранение данных" style="shape=rect;html=1;rounded=1;whiteSpace=wrap;align=center;" parent="1" vertex="1">
          <mxGeometry x="-1800" y="2827.5" width="110" height="45" as="geometry" />
        </mxCell>
        <mxCell id="pcf_KDZU3Iva-soeFCws-37" value="" style="strokeWidth=2;html=1;shape=mxgraph.flowchart.database;whiteSpace=wrap;" parent="1" vertex="1">
          <mxGeometry x="-1660" y="2872.5" width="50" height="60" as="geometry" />
        </mxCell>
        <mxCell id="pcf_KDZU3Iva-soeFCws-40" value="" style="endArrow=none;dashed=1;html=1;dashPattern=1 3;strokeWidth=2;rounded=0;exitX=1;exitY=0.5;exitDx=0;exitDy=0;entryX=0;entryY=0.5;entryDx=0;entryDy=0;entryPerimeter=0;" parent="1" source="pcf_KDZU3Iva-soeFCws-36" target="pcf_KDZU3Iva-soeFCws-37" edge="1">
          <mxGeometry width="50" height="50" relative="1" as="geometry">
            <mxPoint x="-1640" y="2850" as="sourcePoint" />
            <mxPoint x="-1590" y="2800" as="targetPoint" />
          </mxGeometry>
        </mxCell>
        <mxCell id="pcf_KDZU3Iva-soeFCws-46" style="edgeStyle=orthogonalEdgeStyle;rounded=0;orthogonalLoop=1;jettySize=auto;html=1;entryX=0.5;entryY=1;entryDx=0;entryDy=0;" parent="1" source="pcf_KDZU3Iva-soeFCws-41" target="pcf_KDZU3Iva-soeFCws-43" edge="1">
          <mxGeometry relative="1" as="geometry" />
        </mxCell>
        <mxCell id="pcf_KDZU3Iva-soeFCws-41" value="Выборка списка возможных развлечение" style="shape=rect;html=1;rounded=1;whiteSpace=wrap;align=center;" parent="1" vertex="1">
          <mxGeometry x="-1580" y="2823.13" width="120" height="53.75" as="geometry" />
        </mxCell>
        <mxCell id="pcf_KDZU3Iva-soeFCws-48" style="edgeStyle=orthogonalEdgeStyle;rounded=0;orthogonalLoop=1;jettySize=auto;html=1;entryX=0;entryY=0.5;entryDx=0;entryDy=0;entryPerimeter=0;" parent="1" source="pcf_KDZU3Iva-soeFCws-43" target="pcf_KDZU3Iva-soeFCws-47" edge="1">
          <mxGeometry relative="1" as="geometry" />
        </mxCell>
        <mxCell id="pcf_KDZU3Iva-soeFCws-43" value="Главный экран со списком предложений" style="shape=rect;html=1;rounded=1;whiteSpace=wrap;align=center;" parent="1" vertex="1">
          <mxGeometry x="-1590" y="2550" width="140" height="60" as="geometry" />
        </mxCell>
        <mxCell id="pcf_KDZU3Iva-soeFCws-44" value="" style="strokeWidth=2;html=1;shape=mxgraph.flowchart.database;whiteSpace=wrap;" parent="1" vertex="1">
          <mxGeometry x="-1410" y="2872.5" width="50" height="60" as="geometry" />
        </mxCell>
        <mxCell id="pcf_KDZU3Iva-soeFCws-45" value="" style="endArrow=none;dashed=1;html=1;dashPattern=1 3;strokeWidth=2;rounded=0;entryX=0;entryY=0.5;entryDx=0;entryDy=0;entryPerimeter=0;exitX=1;exitY=0.5;exitDx=0;exitDy=0;" parent="1" source="pcf_KDZU3Iva-soeFCws-41" target="pcf_KDZU3Iva-soeFCws-44" edge="1">
          <mxGeometry width="50" height="50" relative="1" as="geometry">
            <mxPoint x="-1450" y="2830" as="sourcePoint" />
            <mxPoint x="-1650" y="2913" as="targetPoint" />
          </mxGeometry>
        </mxCell>
        <mxCell id="pcf_KDZU3Iva-soeFCws-47" value="" style="html=1;shape=mxgraph.sysml.actFinal;strokeWidth=2;verticalLabelPosition=bottom;verticalAlignment=top;" parent="1" vertex="1">
          <mxGeometry x="-1310" y="2560" width="40" height="40" as="geometry" />
        </mxCell>
        <mxCell id="pcf_KDZU3Iva-soeFCws-49" value="" style="group;movable=1;resizable=1;rotatable=1;deletable=1;editable=1;locked=0;connectable=1;" parent="1" vertex="1" connectable="0">
          <mxGeometry x="-2810" y="3120" width="1740" height="540" as="geometry" />
        </mxCell>
        <mxCell id="pcf_KDZU3Iva-soeFCws-50" value="Front" style="swimlane;horizontal=0;whiteSpace=wrap;html=1;movable=1;resizable=1;rotatable=1;deletable=1;editable=1;locked=0;connectable=1;" parent="pcf_KDZU3Iva-soeFCws-49" vertex="1">
          <mxGeometry width="1740.0000000000002" height="260" as="geometry" />
        </mxCell>
        <mxCell id="pcf_KDZU3Iva-soeFCws-51" value="Backend" style="swimlane;horizontal=0;whiteSpace=wrap;html=1;" parent="pcf_KDZU3Iva-soeFCws-49" vertex="1">
          <mxGeometry y="260" width="1740.0000000000002" height="280" as="geometry" />
        </mxCell>
        <mxCell id="pcf_KDZU3Iva-soeFCws-52" value="&lt;span style=&quot;font-size: 31px;&quot;&gt;Получение и использование развлечения&lt;/span&gt;" style="text;html=1;strokeColor=none;fillColor=none;align=center;verticalAlign=middle;whiteSpace=wrap;rounded=0;" parent="1" vertex="1">
          <mxGeometry x="-2270" y="2990" width="590" height="160" as="geometry" />
        </mxCell>
        <mxCell id="pcf_KDZU3Iva-soeFCws-55" style="edgeStyle=orthogonalEdgeStyle;rounded=0;orthogonalLoop=1;jettySize=auto;html=1;entryX=0;entryY=0.5;entryDx=0;entryDy=0;" parent="1" source="pcf_KDZU3Iva-soeFCws-53" target="pcf_KDZU3Iva-soeFCws-54" edge="1">
          <mxGeometry relative="1" as="geometry" />
        </mxCell>
        <mxCell id="pcf_KDZU3Iva-soeFCws-53" value="" style="shape=ellipse;html=1;fillColor=strokeColor;strokeWidth=2;verticalLabelPosition=bottom;verticalAlignment=top;perimeter=ellipsePerimeter;" parent="1" vertex="1">
          <mxGeometry x="-2770" y="3220" width="40" height="40" as="geometry" />
        </mxCell>
        <mxCell id="pcf_KDZU3Iva-soeFCws-57" style="edgeStyle=orthogonalEdgeStyle;rounded=0;orthogonalLoop=1;jettySize=auto;html=1;entryX=0.5;entryY=0;entryDx=0;entryDy=0;" parent="1" source="pcf_KDZU3Iva-soeFCws-54" target="pcf_KDZU3Iva-soeFCws-56" edge="1">
          <mxGeometry relative="1" as="geometry" />
        </mxCell>
        <mxCell id="pcf_KDZU3Iva-soeFCws-58" value="&lt;font style=&quot;font-size: 14px;&quot;&gt;GET /api/entertainment&lt;/font&gt;" style="edgeLabel;html=1;align=center;verticalAlign=middle;resizable=0;points=[];" parent="pcf_KDZU3Iva-soeFCws-57" vertex="1" connectable="0">
          <mxGeometry x="0.7022" y="-1" relative="1" as="geometry">
            <mxPoint as="offset" />
          </mxGeometry>
        </mxCell>
        <mxCell id="pcf_KDZU3Iva-soeFCws-54" value="Просмотр списка предложенный развлечений" style="shape=rect;html=1;rounded=1;whiteSpace=wrap;align=center;" parent="1" vertex="1">
          <mxGeometry x="-2680" y="3215" width="160" height="50" as="geometry" />
        </mxCell>
        <mxCell id="pcf_KDZU3Iva-soeFCws-62" style="edgeStyle=orthogonalEdgeStyle;rounded=0;orthogonalLoop=1;jettySize=auto;html=1;entryX=0;entryY=0.5;entryDx=0;entryDy=0;exitX=0.5;exitY=1;exitDx=0;exitDy=0;" parent="1" source="pcf_KDZU3Iva-soeFCws-56" target="pcf_KDZU3Iva-soeFCws-59" edge="1">
          <mxGeometry relative="1" as="geometry" />
        </mxCell>
        <mxCell id="pcf_KDZU3Iva-soeFCws-56" value="Запрос на получение списка развлечений" style="shape=rect;html=1;rounded=1;whiteSpace=wrap;align=center;" parent="1" vertex="1">
          <mxGeometry x="-2657.5" y="3425.01" width="115" height="80" as="geometry" />
        </mxCell>
        <mxCell id="pcf_KDZU3Iva-soeFCws-64" style="edgeStyle=orthogonalEdgeStyle;rounded=0;orthogonalLoop=1;jettySize=auto;html=1;entryX=0.5;entryY=1;entryDx=0;entryDy=0;" parent="1" source="pcf_KDZU3Iva-soeFCws-59" target="pcf_KDZU3Iva-soeFCws-63" edge="1">
          <mxGeometry relative="1" as="geometry" />
        </mxCell>
        <mxCell id="pcf_KDZU3Iva-soeFCws-59" value="Выборка списка возможных развлечение" style="shape=rect;html=1;rounded=1;whiteSpace=wrap;align=center;" parent="1" vertex="1">
          <mxGeometry x="-2560" y="3530" width="120" height="53.75" as="geometry" />
        </mxCell>
        <mxCell id="pcf_KDZU3Iva-soeFCws-60" value="" style="strokeWidth=2;html=1;shape=mxgraph.flowchart.database;whiteSpace=wrap;" parent="1" vertex="1">
          <mxGeometry x="-2430" y="3590" width="50" height="60" as="geometry" />
        </mxCell>
        <mxCell id="pcf_KDZU3Iva-soeFCws-61" value="" style="endArrow=none;dashed=1;html=1;dashPattern=1 3;strokeWidth=2;rounded=0;entryX=0;entryY=0.5;entryDx=0;entryDy=0;entryPerimeter=0;exitX=0.5;exitY=1;exitDx=0;exitDy=0;" parent="1" source="pcf_KDZU3Iva-soeFCws-59" target="pcf_KDZU3Iva-soeFCws-60" edge="1">
          <mxGeometry width="50" height="50" relative="1" as="geometry">
            <mxPoint x="-2540" y="3526.87" as="sourcePoint" />
            <mxPoint x="-2740" y="3609.87" as="targetPoint" />
          </mxGeometry>
        </mxCell>
        <mxCell id="pcf_KDZU3Iva-soeFCws-66" style="edgeStyle=orthogonalEdgeStyle;rounded=0;orthogonalLoop=1;jettySize=auto;html=1;entryX=0.5;entryY=1;entryDx=0;entryDy=0;" parent="1" source="pcf_KDZU3Iva-soeFCws-63" target="pcf_KDZU3Iva-soeFCws-65" edge="1">
          <mxGeometry relative="1" as="geometry" />
        </mxCell>
        <mxCell id="pcf_KDZU3Iva-soeFCws-63" value="Передача овтета" style="shape=rect;html=1;rounded=1;whiteSpace=wrap;align=center;" parent="1" vertex="1">
          <mxGeometry x="-2420" y="3447.51" width="112.5" height="35.01" as="geometry" />
        </mxCell>
        <mxCell id="pcf_KDZU3Iva-soeFCws-91" style="edgeStyle=orthogonalEdgeStyle;rounded=0;orthogonalLoop=1;jettySize=auto;html=1;entryX=0;entryY=0.5;entryDx=0;entryDy=0;exitX=1;exitY=0.5;exitDx=0;exitDy=0;" parent="1" source="pcf_KDZU3Iva-soeFCws-65" target="pcf_KDZU3Iva-soeFCws-89" edge="1">
          <mxGeometry relative="1" as="geometry" />
        </mxCell>
        <mxCell id="pcf_KDZU3Iva-soeFCws-65" value="Главный экран со списком предложений" style="shape=rect;html=1;rounded=1;whiteSpace=wrap;align=center;" parent="1" vertex="1">
          <mxGeometry x="-2433.75" y="3180" width="140" height="60" as="geometry" />
        </mxCell>
        <mxCell id="pcf_KDZU3Iva-soeFCws-70" style="edgeStyle=orthogonalEdgeStyle;rounded=0;orthogonalLoop=1;jettySize=auto;html=1;entryX=0.5;entryY=0;entryDx=0;entryDy=0;" parent="1" source="pcf_KDZU3Iva-soeFCws-67" target="pcf_KDZU3Iva-soeFCws-69" edge="1">
          <mxGeometry relative="1" as="geometry" />
        </mxCell>
        <mxCell id="pcf_KDZU3Iva-soeFCws-67" value="Выбор развлечения" style="shape=rect;html=1;rounded=1;whiteSpace=wrap;align=center;" parent="1" vertex="1">
          <mxGeometry x="-1670" y="3220" width="160" height="50" as="geometry" />
        </mxCell>
        <mxCell id="pcf_KDZU3Iva-soeFCws-72" style="edgeStyle=orthogonalEdgeStyle;rounded=0;orthogonalLoop=1;jettySize=auto;html=1;" parent="1" source="pcf_KDZU3Iva-soeFCws-69" target="pcf_KDZU3Iva-soeFCws-71" edge="1">
          <mxGeometry relative="1" as="geometry" />
        </mxCell>
        <mxCell id="pcf_KDZU3Iva-soeFCws-73" value="&lt;font style=&quot;font-size: 14px;&quot;&gt;GET /api/enterainment/{entertainmentId}&lt;/font&gt;" style="edgeLabel;html=1;align=center;verticalAlign=middle;resizable=0;points=[];" parent="pcf_KDZU3Iva-soeFCws-72" vertex="1" connectable="0">
          <mxGeometry x="0.2759" y="-2" relative="1" as="geometry">
            <mxPoint as="offset" />
          </mxGeometry>
        </mxCell>
        <mxCell id="pcf_KDZU3Iva-soeFCws-69" value="Просмотр развлечения" style="shape=rect;html=1;rounded=1;whiteSpace=wrap;align=center;" parent="1" vertex="1">
          <mxGeometry x="-1662.5" y="3290" width="145" height="50" as="geometry" />
        </mxCell>
        <mxCell id="pcf_KDZU3Iva-soeFCws-75" style="edgeStyle=orthogonalEdgeStyle;rounded=0;orthogonalLoop=1;jettySize=auto;html=1;exitX=0.5;exitY=1;exitDx=0;exitDy=0;entryX=0;entryY=0.5;entryDx=0;entryDy=0;" parent="1" source="pcf_KDZU3Iva-soeFCws-71" target="pcf_KDZU3Iva-soeFCws-74" edge="1">
          <mxGeometry relative="1" as="geometry" />
        </mxCell>
        <mxCell id="pcf_KDZU3Iva-soeFCws-71" value="Запрос на получения развлечения" style="shape=rect;html=1;rounded=1;whiteSpace=wrap;align=center;" parent="1" vertex="1">
          <mxGeometry x="-1670" y="3460" width="160" height="60" as="geometry" />
        </mxCell>
        <mxCell id="pcf_KDZU3Iva-soeFCws-81" style="edgeStyle=orthogonalEdgeStyle;rounded=0;orthogonalLoop=1;jettySize=auto;html=1;entryX=0.5;entryY=1;entryDx=0;entryDy=0;" parent="1" source="pcf_KDZU3Iva-soeFCws-74" target="pcf_KDZU3Iva-soeFCws-80" edge="1">
          <mxGeometry relative="1" as="geometry" />
        </mxCell>
        <mxCell id="pcf_KDZU3Iva-soeFCws-74" value="Получение данных по выбранному развлечению" style="shape=rect;html=1;rounded=1;whiteSpace=wrap;align=center;" parent="1" vertex="1">
          <mxGeometry x="-1560" y="3530" width="160" height="50" as="geometry" />
        </mxCell>
        <mxCell id="pcf_KDZU3Iva-soeFCws-76" value="" style="strokeWidth=2;html=1;shape=mxgraph.flowchart.database;whiteSpace=wrap;" parent="1" vertex="1">
          <mxGeometry x="-1390" y="3590" width="50" height="60" as="geometry" />
        </mxCell>
        <mxCell id="pcf_KDZU3Iva-soeFCws-77" value="" style="endArrow=none;dashed=1;html=1;dashPattern=1 3;strokeWidth=2;rounded=0;entryX=0;entryY=0.5;entryDx=0;entryDy=0;entryPerimeter=0;exitX=0.5;exitY=1;exitDx=0;exitDy=0;" parent="1" source="pcf_KDZU3Iva-soeFCws-74" target="pcf_KDZU3Iva-soeFCws-76" edge="1">
          <mxGeometry width="50" height="50" relative="1" as="geometry">
            <mxPoint x="-1230" y="3510" as="sourcePoint" />
            <mxPoint x="-1370" y="3610" as="targetPoint" />
          </mxGeometry>
        </mxCell>
        <mxCell id="pcf_KDZU3Iva-soeFCws-78" value="" style="endArrow=none;dashed=1;html=1;dashPattern=1 3;strokeWidth=2;rounded=0;exitX=0.25;exitY=1;exitDx=0;exitDy=0;entryX=1;entryY=0.5;entryDx=0;entryDy=0;" parent="1" source="pcf_KDZU3Iva-soeFCws-74" target="pcf_KDZU3Iva-soeFCws-79" edge="1">
          <mxGeometry width="50" height="50" relative="1" as="geometry">
            <mxPoint x="-1700" y="3595" as="sourcePoint" />
            <mxPoint x="-1590" y="3605" as="targetPoint" />
          </mxGeometry>
        </mxCell>
        <mxCell id="pcf_KDZU3Iva-soeFCws-79" value="&lt;b&gt;[Увеличиваем кофициент конфигурации по выбранной категории]&lt;/b&gt;" style="text;html=1;strokeColor=none;fillColor=none;align=center;verticalAlign=middle;whiteSpace=wrap;rounded=0;" parent="1" vertex="1">
          <mxGeometry x="-1760" y="3590" width="170" height="50" as="geometry" />
        </mxCell>
        <mxCell id="pcf_KDZU3Iva-soeFCws-83" style="edgeStyle=orthogonalEdgeStyle;rounded=0;orthogonalLoop=1;jettySize=auto;html=1;entryX=0.5;entryY=1;entryDx=0;entryDy=0;" parent="1" source="pcf_KDZU3Iva-soeFCws-80" target="pcf_KDZU3Iva-soeFCws-82" edge="1">
          <mxGeometry relative="1" as="geometry" />
        </mxCell>
        <mxCell id="pcf_KDZU3Iva-soeFCws-80" value="Передача ответа с подробным описанием развлечения" style="shape=rect;html=1;rounded=1;whiteSpace=wrap;align=center;" parent="1" vertex="1">
          <mxGeometry x="-1380" y="3437.51" width="160" height="60" as="geometry" />
        </mxCell>
        <mxCell id="pcf_KDZU3Iva-soeFCws-85" style="edgeStyle=orthogonalEdgeStyle;rounded=0;orthogonalLoop=1;jettySize=auto;html=1;entryX=0;entryY=0.5;entryDx=0;entryDy=0;entryPerimeter=0;" parent="1" source="pcf_KDZU3Iva-soeFCws-82" target="pcf_KDZU3Iva-soeFCws-84" edge="1">
          <mxGeometry relative="1" as="geometry" />
        </mxCell>
        <mxCell id="pcf_KDZU3Iva-soeFCws-82" value="Экран с описанием развлечения" style="shape=rect;html=1;rounded=1;whiteSpace=wrap;align=center;" parent="1" vertex="1">
          <mxGeometry x="-1375" y="3200" width="150" height="60" as="geometry" />
        </mxCell>
        <mxCell id="pcf_KDZU3Iva-soeFCws-84" value="" style="html=1;shape=mxgraph.sysml.actFinal;strokeWidth=2;verticalLabelPosition=bottom;verticalAlignment=top;" parent="1" vertex="1">
          <mxGeometry x="-1160" y="3210" width="40" height="40" as="geometry" />
        </mxCell>
        <mxCell id="pcf_KDZU3Iva-soeFCws-87" value="" style="group" parent="1" vertex="1" connectable="0">
          <mxGeometry x="-2470" y="2550" width="60" height="60" as="geometry" />
        </mxCell>
        <mxCell id="pcf_KDZU3Iva-soeFCws-21" value="" style="rhombus;" parent="pcf_KDZU3Iva-soeFCws-87" vertex="1">
          <mxGeometry width="60" height="60" as="geometry" />
        </mxCell>
        <mxCell id="pcf_KDZU3Iva-soeFCws-86" value="" style="shape=umlDestroy;whiteSpace=wrap;html=1;strokeWidth=3;targetShapes=umlLifeline;" parent="pcf_KDZU3Iva-soeFCws-87" vertex="1">
          <mxGeometry x="15" y="15" width="30" height="30" as="geometry" />
        </mxCell>
        <mxCell id="pcf_KDZU3Iva-soeFCws-88" value="" style="group" parent="1" vertex="1" connectable="0">
          <mxGeometry x="-2250" y="3180" width="60" height="60" as="geometry" />
        </mxCell>
        <mxCell id="pcf_KDZU3Iva-soeFCws-89" value="" style="rhombus;" parent="pcf_KDZU3Iva-soeFCws-88" vertex="1">
          <mxGeometry width="60" height="60" as="geometry" />
        </mxCell>
        <mxCell id="pcf_KDZU3Iva-soeFCws-90" value="" style="shape=umlDestroy;whiteSpace=wrap;html=1;strokeWidth=3;targetShapes=umlLifeline;" parent="pcf_KDZU3Iva-soeFCws-88" vertex="1">
          <mxGeometry x="15" y="15" width="30" height="30" as="geometry" />
        </mxCell>
        <mxCell id="pcf_KDZU3Iva-soeFCws-95" style="edgeStyle=orthogonalEdgeStyle;rounded=0;orthogonalLoop=1;jettySize=auto;html=1;entryX=0.5;entryY=0;entryDx=0;entryDy=0;exitX=0.5;exitY=1;exitDx=0;exitDy=0;" parent="1" source="pcf_KDZU3Iva-soeFCws-93" target="pcf_KDZU3Iva-soeFCws-94" edge="1">
          <mxGeometry relative="1" as="geometry" />
        </mxCell>
        <mxCell id="pcf_KDZU3Iva-soeFCws-93" value="Ввод данных для фильтрируемого поиска" style="shape=rect;html=1;rounded=1;whiteSpace=wrap;align=center;" parent="1" vertex="1">
          <mxGeometry x="-2140" y="3185" width="160" height="50" as="geometry" />
        </mxCell>
        <mxCell id="pcf_KDZU3Iva-soeFCws-92" style="edgeStyle=orthogonalEdgeStyle;rounded=0;orthogonalLoop=1;jettySize=auto;html=1;entryX=0;entryY=0.5;entryDx=0;entryDy=0;" parent="1" source="pcf_KDZU3Iva-soeFCws-89" target="pcf_KDZU3Iva-soeFCws-93" edge="1">
          <mxGeometry relative="1" as="geometry">
            <mxPoint x="-2250" y="3170" as="targetPoint" />
          </mxGeometry>
        </mxCell>
        <mxCell id="pcf_KDZU3Iva-soeFCws-98" style="edgeStyle=orthogonalEdgeStyle;rounded=0;orthogonalLoop=1;jettySize=auto;html=1;entryX=0.5;entryY=0;entryDx=0;entryDy=0;" parent="1" source="pcf_KDZU3Iva-soeFCws-94" target="pcf_KDZU3Iva-soeFCws-97" edge="1">
          <mxGeometry relative="1" as="geometry" />
        </mxCell>
        <mxCell id="pcf_KDZU3Iva-soeFCws-99" value="&lt;font style=&quot;font-size: 14px;&quot;&gt;GET /api/entertainment/search&lt;/font&gt;" style="edgeLabel;html=1;align=center;verticalAlign=middle;resizable=0;points=[];" parent="pcf_KDZU3Iva-soeFCws-98" vertex="1" connectable="0">
          <mxGeometry x="0.2461" y="-1" relative="1" as="geometry">
            <mxPoint as="offset" />
          </mxGeometry>
        </mxCell>
        <mxCell id="pcf_KDZU3Iva-soeFCws-94" value="Поиск развлечений" style="shape=rect;html=1;rounded=1;whiteSpace=wrap;align=center;" parent="1" vertex="1">
          <mxGeometry x="-2140" y="3300" width="160" height="40" as="geometry" />
        </mxCell>
        <mxCell id="pcf_KDZU3Iva-soeFCws-96" style="edgeStyle=orthogonalEdgeStyle;rounded=0;orthogonalLoop=1;jettySize=auto;html=1;entryX=0.5;entryY=0;entryDx=0;entryDy=0;" parent="1" source="pcf_KDZU3Iva-soeFCws-89" target="pcf_KDZU3Iva-soeFCws-67" edge="1">
          <mxGeometry relative="1" as="geometry">
            <Array as="points">
              <mxPoint x="-2220" y="3160" />
              <mxPoint x="-1590" y="3160" />
            </Array>
          </mxGeometry>
        </mxCell>
        <mxCell id="pcf_KDZU3Iva-soeFCws-101" style="edgeStyle=orthogonalEdgeStyle;rounded=0;orthogonalLoop=1;jettySize=auto;html=1;entryX=0;entryY=0.5;entryDx=0;entryDy=0;" parent="1" source="pcf_KDZU3Iva-soeFCws-97" target="pcf_KDZU3Iva-soeFCws-100" edge="1">
          <mxGeometry relative="1" as="geometry" />
        </mxCell>
        <mxCell id="pcf_KDZU3Iva-soeFCws-97" value="Запрос на поиск развлечений" style="shape=rect;html=1;rounded=1;whiteSpace=wrap;align=center;" parent="1" vertex="1">
          <mxGeometry x="-2140" y="3435.01" width="160" height="60" as="geometry" />
        </mxCell>
        <mxCell id="pcf_KDZU3Iva-soeFCws-105" style="edgeStyle=orthogonalEdgeStyle;rounded=0;orthogonalLoop=1;jettySize=auto;html=1;entryX=0.5;entryY=1;entryDx=0;entryDy=0;" parent="1" source="pcf_KDZU3Iva-soeFCws-100" target="pcf_KDZU3Iva-soeFCws-104" edge="1">
          <mxGeometry relative="1" as="geometry" />
        </mxCell>
        <mxCell id="pcf_KDZU3Iva-soeFCws-100" value="Выборка развлечений согласно условиям" style="shape=rect;html=1;rounded=1;whiteSpace=wrap;align=center;" parent="1" vertex="1">
          <mxGeometry x="-2030" y="3520" width="160" height="50" as="geometry" />
        </mxCell>
        <mxCell id="pcf_KDZU3Iva-soeFCws-102" value="" style="strokeWidth=2;html=1;shape=mxgraph.flowchart.database;whiteSpace=wrap;" parent="1" vertex="1">
          <mxGeometry x="-1910" y="3590" width="50" height="60" as="geometry" />
        </mxCell>
        <mxCell id="pcf_KDZU3Iva-soeFCws-103" value="" style="endArrow=none;dashed=1;html=1;dashPattern=1 3;strokeWidth=2;rounded=0;entryX=0;entryY=0.5;entryDx=0;entryDy=0;entryPerimeter=0;exitX=0.25;exitY=1;exitDx=0;exitDy=0;" parent="1" source="pcf_KDZU3Iva-soeFCws-100" target="pcf_KDZU3Iva-soeFCws-102" edge="1">
          <mxGeometry width="50" height="50" relative="1" as="geometry">
            <mxPoint x="-2000" y="3580" as="sourcePoint" />
            <mxPoint x="-1890" y="3610" as="targetPoint" />
          </mxGeometry>
        </mxCell>
        <mxCell id="pcf_KDZU3Iva-soeFCws-107" style="edgeStyle=orthogonalEdgeStyle;rounded=0;orthogonalLoop=1;jettySize=auto;html=1;entryX=0.5;entryY=1;entryDx=0;entryDy=0;" parent="1" source="pcf_KDZU3Iva-soeFCws-104" target="pcf_KDZU3Iva-soeFCws-106" edge="1">
          <mxGeometry relative="1" as="geometry" />
        </mxCell>
        <mxCell id="pcf_KDZU3Iva-soeFCws-104" value="Передача ответа" style="shape=rect;html=1;rounded=1;whiteSpace=wrap;align=center;" parent="1" vertex="1">
          <mxGeometry x="-1940" y="3432.52" width="160" height="50" as="geometry" />
        </mxCell>
        <mxCell id="pcf_KDZU3Iva-soeFCws-108" style="edgeStyle=orthogonalEdgeStyle;rounded=0;orthogonalLoop=1;jettySize=auto;html=1;entryX=0;entryY=0.5;entryDx=0;entryDy=0;" parent="1" source="pcf_KDZU3Iva-soeFCws-106" target="pcf_KDZU3Iva-soeFCws-67" edge="1">
          <mxGeometry relative="1" as="geometry" />
        </mxCell>
        <mxCell id="pcf_KDZU3Iva-soeFCws-106" value="Экран со списком отфильтрованных развлечений&amp;nbsp;" style="shape=rect;html=1;rounded=1;whiteSpace=wrap;align=center;" parent="1" vertex="1">
          <mxGeometry x="-1940" y="3217.5" width="160" height="55" as="geometry" />
        </mxCell>
        <mxCell id="k28_8GWcvLkQVrRJRihw-3" style="edgeStyle=orthogonalEdgeStyle;rounded=0;orthogonalLoop=1;jettySize=auto;html=1;exitX=0.5;exitY=0;exitDx=0;exitDy=0;exitPerimeter=0;entryX=0;entryY=0.75;entryDx=0;entryDy=0;entryPerimeter=0;" parent="1" source="k28_8GWcvLkQVrRJRihw-1" target="Kw9__kutnGEFumvWiqR3-2" edge="1">
          <mxGeometry relative="1" as="geometry" />
        </mxCell>
        <mxCell id="k28_8GWcvLkQVrRJRihw-27" value="&amp;lt;&amp;lt;Возвращение к корзине&amp;gt;&amp;gt;" style="edgeLabel;html=1;align=center;verticalAlign=middle;resizable=0;points=[];" parent="k28_8GWcvLkQVrRJRihw-3" vertex="1" connectable="0">
          <mxGeometry x="0.0799" y="1" relative="1" as="geometry">
            <mxPoint as="offset" />
          </mxGeometry>
        </mxCell>
        <mxCell id="k28_8GWcvLkQVrRJRihw-6" style="edgeStyle=orthogonalEdgeStyle;rounded=0;orthogonalLoop=1;jettySize=auto;html=1;exitX=0.25;exitY=1;exitDx=0;exitDy=0;exitPerimeter=0;entryX=0.25;entryY=0;entryDx=0;entryDy=0;entryPerimeter=0;" parent="1" source="k28_8GWcvLkQVrRJRihw-1" target="Kw9__kutnGEFumvWiqR3-4" edge="1">
          <mxGeometry relative="1" as="geometry">
            <Array as="points">
              <mxPoint x="-2456" y="1119" />
              <mxPoint x="-2300" y="1119" />
            </Array>
          </mxGeometry>
        </mxCell>
        <mxCell id="k28_8GWcvLkQVrRJRihw-25" value="&amp;lt;&amp;lt;Добавить участников&amp;gt;&amp;gt;" style="edgeLabel;html=1;align=center;verticalAlign=middle;resizable=0;points=[];" parent="k28_8GWcvLkQVrRJRihw-6" vertex="1" connectable="0">
          <mxGeometry x="-0.4651" y="1" relative="1" as="geometry">
            <mxPoint x="65" y="4" as="offset" />
          </mxGeometry>
        </mxCell>
        <mxCell id="k28_8GWcvLkQVrRJRihw-1" value="&lt;p style=&quot;margin:0px;margin-top:4px;text-align:center;&quot;&gt;Работа с участниками корзины&lt;br&gt;&lt;/p&gt;&lt;hr&gt;&lt;p&gt;&lt;/p&gt;&lt;p style=&quot;margin:0px;margin-left:8px;text-align:left;&quot;&gt;do / Отображение списка уастников&lt;br&gt;&lt;/p&gt;&lt;p style=&quot;margin:0px;margin-left:8px;text-align:left;&quot;&gt;do / Удаление участников корзины&lt;/p&gt;" style="shape=mxgraph.sysml.simpleState;html=1;overflow=fill;whiteSpace=wrap;align=center;" parent="1" vertex="1">
          <mxGeometry x="-2506.21" y="969.69" width="200" height="100.31" as="geometry" />
        </mxCell>
        <mxCell id="k28_8GWcvLkQVrRJRihw-21" value="&amp;lt;&amp;lt;Вернуться в личный кабинет&amp;gt;&amp;gt;" style="edgeLabel;html=1;align=center;verticalAlign=middle;resizable=0;points=[];" parent="1" vertex="1" connectable="0">
          <mxGeometry x="-1449.9982758620692" y="532.5" as="geometry" />
        </mxCell>
        <mxCell id="k28_8GWcvLkQVrRJRihw-42" style="edgeStyle=orthogonalEdgeStyle;rounded=0;comic=1;jiggle=0;orthogonalLoop=1;jettySize=auto;html=1;entryX=0.5;entryY=0;entryDx=0;entryDy=0;strokeColor=#000000;entryPerimeter=0;" parent="1" source="k28_8GWcvLkQVrRJRihw-44" target="k28_8GWcvLkQVrRJRihw-119" edge="1">
          <mxGeometry relative="1" as="geometry">
            <mxPoint x="-3955" y="282.4999999999998" as="targetPoint" />
          </mxGeometry>
        </mxCell>
        <mxCell id="k28_8GWcvLkQVrRJRihw-43" value="&amp;lt;&amp;lt;Вход в систему&amp;gt;&amp;gt;" style="edgeLabel;html=1;align=center;verticalAlign=middle;resizable=0;points=[];" parent="k28_8GWcvLkQVrRJRihw-42" vertex="1" connectable="0">
          <mxGeometry x="-0.2111" relative="1" as="geometry">
            <mxPoint as="offset" />
          </mxGeometry>
        </mxCell>
        <mxCell id="k28_8GWcvLkQVrRJRihw-44" value="" style="shape=ellipse;html=1;fillColor=strokeColor;fontSize=18;fontColor=#ffffff;jiggle=0;strokeColor=#080000;" parent="1" vertex="1">
          <mxGeometry x="-3980" y="150" width="40" height="40" as="geometry" />
        </mxCell>
        <mxCell id="k28_8GWcvLkQVrRJRihw-45" style="edgeStyle=orthogonalEdgeStyle;rounded=0;comic=1;jiggle=0;orthogonalLoop=1;jettySize=auto;html=1;entryX=0.5;entryY=0;entryDx=0;entryDy=0;entryPerimeter=0;strokeColor=#000000;exitX=1;exitY=0.5;exitDx=0;exitDy=0;exitPerimeter=0;" parent="1" source="k28_8GWcvLkQVrRJRihw-119" target="k28_8GWcvLkQVrRJRihw-60" edge="1">
          <mxGeometry relative="1" as="geometry">
            <mxPoint x="-3870" y="338.7499999999998" as="sourcePoint" />
          </mxGeometry>
        </mxCell>
        <mxCell id="k28_8GWcvLkQVrRJRihw-46" value="&amp;lt;&amp;lt;Просмотр личной кабинета&amp;gt;&amp;gt;" style="edgeLabel;html=1;align=center;verticalAlign=middle;resizable=0;points=[];" parent="k28_8GWcvLkQVrRJRihw-45" vertex="1" connectable="0">
          <mxGeometry x="-0.2378" y="2" relative="1" as="geometry">
            <mxPoint as="offset" />
          </mxGeometry>
        </mxCell>
        <mxCell id="k28_8GWcvLkQVrRJRihw-49" style="edgeStyle=orthogonalEdgeStyle;rounded=0;comic=1;jiggle=0;orthogonalLoop=1;jettySize=auto;html=1;entryX=0.5;entryY=0;entryDx=0;entryDy=0;entryPerimeter=0;strokeColor=#000000;exitX=0;exitY=0.75;exitDx=0;exitDy=0;exitPerimeter=0;" parent="1" source="k28_8GWcvLkQVrRJRihw-119" target="k28_8GWcvLkQVrRJRihw-68" edge="1">
          <mxGeometry relative="1" as="geometry">
            <mxPoint x="-4040" y="338.7499999999998" as="sourcePoint" />
            <Array as="points">
              <mxPoint x="-4080" y="353" />
              <mxPoint x="-4080" y="330" />
              <mxPoint x="-4260" y="330" />
            </Array>
          </mxGeometry>
        </mxCell>
        <mxCell id="k28_8GWcvLkQVrRJRihw-50" value="&amp;lt;&amp;lt;Выбрать корзину&amp;gt;&amp;gt;" style="edgeLabel;html=1;align=center;verticalAlign=middle;resizable=0;points=[];" parent="k28_8GWcvLkQVrRJRihw-49" vertex="1" connectable="0">
          <mxGeometry x="0.1136" y="-2" relative="1" as="geometry">
            <mxPoint as="offset" />
          </mxGeometry>
        </mxCell>
        <mxCell id="k28_8GWcvLkQVrRJRihw-51" style="edgeStyle=orthogonalEdgeStyle;rounded=0;orthogonalLoop=1;jettySize=auto;html=1;entryX=0.25;entryY=0;entryDx=0;entryDy=0;entryPerimeter=0;" parent="1" source="k28_8GWcvLkQVrRJRihw-60" target="k28_8GWcvLkQVrRJRihw-99" edge="1">
          <mxGeometry relative="1" as="geometry">
            <Array as="points">
              <mxPoint x="-3660" y="750" />
              <mxPoint x="-3665" y="750" />
            </Array>
          </mxGeometry>
        </mxCell>
        <mxCell id="k28_8GWcvLkQVrRJRihw-52" value="&amp;lt;&amp;lt;Просмотр списка шаблонов&amp;gt;&amp;gt;" style="edgeLabel;html=1;align=center;verticalAlign=middle;resizable=0;points=[];" parent="k28_8GWcvLkQVrRJRihw-51" vertex="1" connectable="0">
          <mxGeometry x="0.3481" y="-2" relative="1" as="geometry">
            <mxPoint y="1" as="offset" />
          </mxGeometry>
        </mxCell>
        <mxCell id="k28_8GWcvLkQVrRJRihw-53" value="" style="edgeStyle=orthogonalEdgeStyle;rounded=0;orthogonalLoop=1;jettySize=auto;html=1;exitX=0.75;exitY=1;exitDx=0;exitDy=0;exitPerimeter=0;" parent="1" source="k28_8GWcvLkQVrRJRihw-60" target="k28_8GWcvLkQVrRJRihw-109" edge="1">
          <mxGeometry relative="1" as="geometry" />
        </mxCell>
        <mxCell id="k28_8GWcvLkQVrRJRihw-54" value="&amp;lt;&amp;lt;Изменение настроек&amp;gt;&amp;gt;" style="edgeLabel;html=1;align=center;verticalAlign=middle;resizable=0;points=[];" parent="k28_8GWcvLkQVrRJRihw-53" vertex="1" connectable="0">
          <mxGeometry x="0.4374" relative="1" as="geometry">
            <mxPoint as="offset" />
          </mxGeometry>
        </mxCell>
        <mxCell id="k28_8GWcvLkQVrRJRihw-55" style="edgeStyle=orthogonalEdgeStyle;rounded=0;orthogonalLoop=1;jettySize=auto;html=1;exitX=0;exitY=0;exitDx=2.9;exitDy=67.1;exitPerimeter=0;entryX=0.5;entryY=0;entryDx=0;entryDy=0;entryPerimeter=0;" parent="1" source="k28_8GWcvLkQVrRJRihw-60" target="k28_8GWcvLkQVrRJRihw-113" edge="1">
          <mxGeometry relative="1" as="geometry" />
        </mxCell>
        <mxCell id="k28_8GWcvLkQVrRJRihw-56" value="&amp;lt;&amp;lt;Изменений данных&amp;gt;&amp;gt;" style="edgeLabel;html=1;align=center;verticalAlign=middle;resizable=0;points=[];" parent="k28_8GWcvLkQVrRJRihw-55" vertex="1" connectable="0">
          <mxGeometry x="-0.3285" y="-3" relative="1" as="geometry">
            <mxPoint x="-40" y="-18" as="offset" />
          </mxGeometry>
        </mxCell>
        <mxCell id="k28_8GWcvLkQVrRJRihw-57" style="edgeStyle=orthogonalEdgeStyle;rounded=0;orthogonalLoop=1;jettySize=auto;html=1;entryX=1;entryY=0.75;entryDx=0;entryDy=0;entryPerimeter=0;exitX=0;exitY=0.25;exitDx=0;exitDy=0;exitPerimeter=0;" parent="1" source="k28_8GWcvLkQVrRJRihw-60" target="k28_8GWcvLkQVrRJRihw-119" edge="1">
          <mxGeometry relative="1" as="geometry">
            <mxPoint x="-3870" y="366.8749999999998" as="targetPoint" />
          </mxGeometry>
        </mxCell>
        <mxCell id="k28_8GWcvLkQVrRJRihw-58" value="&amp;lt;&amp;lt;Вернуться в главное меню&amp;gt;&amp;gt;" style="edgeLabel;html=1;align=center;verticalAlign=middle;resizable=0;points=[];" parent="k28_8GWcvLkQVrRJRihw-57" vertex="1" connectable="0">
          <mxGeometry x="-0.4133" y="-2" relative="1" as="geometry">
            <mxPoint x="33" y="-23" as="offset" />
          </mxGeometry>
        </mxCell>
        <mxCell id="k28_8GWcvLkQVrRJRihw-59" style="edgeStyle=orthogonalEdgeStyle;rounded=0;orthogonalLoop=1;jettySize=auto;html=1;exitX=0;exitY=0.75;exitDx=0;exitDy=0;exitPerimeter=0;entryX=0.5;entryY=0;entryDx=0;entryDy=0;" parent="1" source="k28_8GWcvLkQVrRJRihw-60" target="k28_8GWcvLkQVrRJRihw-90" edge="1">
          <mxGeometry relative="1" as="geometry">
            <Array as="points">
              <mxPoint x="-3940" y="425" />
            </Array>
          </mxGeometry>
        </mxCell>
        <mxCell id="k28_8GWcvLkQVrRJRihw-60" value="&lt;p style=&quot;margin:0px;margin-top:4px;text-align:center;&quot;&gt;Просмотр личного кабинета&lt;/p&gt;&lt;hr&gt;&lt;p&gt;&lt;/p&gt;&lt;p style=&quot;margin:0px;margin-left:8px;text-align:left;&quot;&gt;do: Отображение разделов личного кабинета&lt;/p&gt;" style="shape=mxgraph.sysml.simpleState;html=1;overflow=fill;whiteSpace=wrap;align=center;jiggle=0;strokeColor=#080000;" parent="1" vertex="1">
          <mxGeometry x="-3760" y="372.5" width="200" height="70" as="geometry" />
        </mxCell>
        <mxCell id="k28_8GWcvLkQVrRJRihw-66" style="edgeStyle=orthogonalEdgeStyle;rounded=0;orthogonalLoop=1;jettySize=auto;html=1;entryX=0.5;entryY=0;entryDx=0;entryDy=0;entryPerimeter=0;" parent="1" source="k28_8GWcvLkQVrRJRihw-68" target="k28_8GWcvLkQVrRJRihw-75" edge="1">
          <mxGeometry relative="1" as="geometry" />
        </mxCell>
        <mxCell id="k28_8GWcvLkQVrRJRihw-67" value="&amp;lt;&amp;lt;Начать работу с корзиной&amp;gt;&amp;gt;" style="edgeLabel;html=1;align=center;verticalAlign=middle;resizable=0;points=[];" parent="k28_8GWcvLkQVrRJRihw-66" vertex="1" connectable="0">
          <mxGeometry x="0.1242" y="-1" relative="1" as="geometry">
            <mxPoint as="offset" />
          </mxGeometry>
        </mxCell>
        <mxCell id="k28_8GWcvLkQVrRJRihw-68" value="&lt;p style=&quot;margin:0px;margin-top:4px;text-align:center;&quot;&gt;Переход внутрь корзины&lt;/p&gt;&lt;hr&gt;&lt;p&gt;&lt;/p&gt;&lt;p style=&quot;margin:0px;margin-left:8px;text-align:left;&quot;&gt;do: Отображение списка товаров&lt;br&gt;&lt;/p&gt;" style="shape=mxgraph.sysml.simpleState;html=1;overflow=fill;whiteSpace=wrap;align=center;jiggle=0;strokeColor=#080000;" parent="1" vertex="1">
          <mxGeometry x="-4360" y="372.5" width="200" height="65" as="geometry" />
        </mxCell>
        <mxCell id="k28_8GWcvLkQVrRJRihw-69" style="edgeStyle=orthogonalEdgeStyle;rounded=0;orthogonalLoop=1;jettySize=auto;html=1;entryX=0;entryY=0.5;entryDx=0;entryDy=0;exitX=0.75;exitY=1;exitDx=0;exitDy=0;exitPerimeter=0;" parent="1" source="k28_8GWcvLkQVrRJRihw-75" target="k28_8GWcvLkQVrRJRihw-90" edge="1">
          <mxGeometry relative="1" as="geometry">
            <Array as="points">
              <mxPoint x="-4072" y="1020" />
              <mxPoint x="-4040" y="1020" />
              <mxPoint x="-4040" y="1073" />
            </Array>
          </mxGeometry>
        </mxCell>
        <mxCell id="k28_8GWcvLkQVrRJRihw-70" value="&amp;lt;&amp;lt;Завершение работы&amp;gt;&amp;gt;" style="edgeLabel;html=1;align=center;verticalAlign=middle;resizable=0;points=[];" parent="k28_8GWcvLkQVrRJRihw-69" vertex="1" connectable="0">
          <mxGeometry x="-0.4565" y="-3" relative="1" as="geometry">
            <mxPoint as="offset" />
          </mxGeometry>
        </mxCell>
        <mxCell id="k28_8GWcvLkQVrRJRihw-71" style="edgeStyle=orthogonalEdgeStyle;rounded=0;orthogonalLoop=1;jettySize=auto;html=1;exitX=0.75;exitY=0;exitDx=0;exitDy=0;exitPerimeter=0;entryX=0.25;entryY=1;entryDx=0;entryDy=0;entryPerimeter=0;" parent="1" source="k28_8GWcvLkQVrRJRihw-75" target="k28_8GWcvLkQVrRJRihw-119" edge="1">
          <mxGeometry relative="1" as="geometry">
            <mxPoint x="-4040" y="310.6249999999998" as="targetPoint" />
            <Array as="points">
              <mxPoint x="-4072" y="470" />
              <mxPoint x="-4072" y="470" />
              <mxPoint x="-4072" y="440" />
              <mxPoint x="-4005" y="440" />
            </Array>
          </mxGeometry>
        </mxCell>
        <mxCell id="k28_8GWcvLkQVrRJRihw-72" value="&amp;lt;&amp;lt;Переход в главное меню&amp;gt;&amp;gt;" style="edgeLabel;html=1;align=center;verticalAlign=middle;resizable=0;points=[];" parent="k28_8GWcvLkQVrRJRihw-71" vertex="1" connectable="0">
          <mxGeometry x="0.0097" y="1" relative="1" as="geometry">
            <mxPoint x="-24" y="1" as="offset" />
          </mxGeometry>
        </mxCell>
        <mxCell id="k28_8GWcvLkQVrRJRihw-73" style="edgeStyle=orthogonalEdgeStyle;rounded=0;orthogonalLoop=1;jettySize=auto;html=1;entryX=1;entryY=0.5;entryDx=0;entryDy=0;entryPerimeter=0;" parent="1" source="k28_8GWcvLkQVrRJRihw-75" target="k28_8GWcvLkQVrRJRihw-126" edge="1">
          <mxGeometry relative="1" as="geometry" />
        </mxCell>
        <mxCell id="k28_8GWcvLkQVrRJRihw-74" value="&amp;lt;&amp;lt;Смотреть список участников&amp;gt;&amp;gt;" style="edgeLabel;html=1;align=center;verticalAlign=middle;resizable=0;points=[];" parent="k28_8GWcvLkQVrRJRihw-73" vertex="1" connectable="0">
          <mxGeometry x="0.1457" y="2" relative="1" as="geometry">
            <mxPoint x="-3" y="-58" as="offset" />
          </mxGeometry>
        </mxCell>
        <mxCell id="k28_8GWcvLkQVrRJRihw-75" value="&lt;p style=&quot;margin:0px;margin-top:4px;text-align:center;&quot;&gt;Работа с корзиной&lt;/p&gt;&lt;hr&gt;&lt;p&gt;&lt;/p&gt;&lt;p style=&quot;margin:0px;margin-left:8px;text-align:left;&quot;&gt;do / Удалить товары из корзины&lt;br&gt;&lt;/p&gt;" style="shape=mxgraph.sysml.simpleState;html=1;overflow=fill;whiteSpace=wrap;align=center;" parent="1" vertex="1">
          <mxGeometry x="-4410" y="488.13" width="450" height="228.74" as="geometry" />
        </mxCell>
        <mxCell id="k28_8GWcvLkQVrRJRihw-76" value="&lt;p style=&quot;margin:0px;margin-top:4px;text-align:center;&quot;&gt;Просмотр списка покупок&lt;/p&gt;&lt;hr&gt;&lt;p&gt;&lt;/p&gt;&lt;p style=&quot;margin:0px;margin-left:8px;text-align:left;&quot;&gt;entry / Вывод истории&lt;br&gt;do / Обновление истории&lt;br&gt;&lt;/p&gt;" style="shape=mxgraph.sysml.simpleState;html=1;overflow=fill;whiteSpace=wrap;align=center;" parent="1" vertex="1">
          <mxGeometry x="-4182.5" y="583.39" width="200" height="70" as="geometry" />
        </mxCell>
        <mxCell id="k28_8GWcvLkQVrRJRihw-77" style="edgeStyle=orthogonalEdgeStyle;rounded=0;orthogonalLoop=1;jettySize=auto;html=1;exitX=0.75;exitY=0;exitDx=0;exitDy=0;exitPerimeter=0;entryX=0.75;entryY=1;entryDx=0;entryDy=0;entryPerimeter=0;" parent="1" source="k28_8GWcvLkQVrRJRihw-79" target="k28_8GWcvLkQVrRJRihw-126" edge="1">
          <mxGeometry relative="1" as="geometry">
            <Array as="points">
              <mxPoint x="-4232" y="939" />
              <mxPoint x="-4330" y="939" />
            </Array>
          </mxGeometry>
        </mxCell>
        <mxCell id="k28_8GWcvLkQVrRJRihw-78" value="&amp;lt;&amp;lt;Результат добавления&amp;gt;&amp;gt;" style="edgeLabel;html=1;align=center;verticalAlign=middle;resizable=0;points=[];" parent="k28_8GWcvLkQVrRJRihw-77" vertex="1" connectable="0">
          <mxGeometry x="-0.5388" y="-1" relative="1" as="geometry">
            <mxPoint as="offset" />
          </mxGeometry>
        </mxCell>
        <mxCell id="k28_8GWcvLkQVrRJRihw-79" value="&lt;p style=&quot;margin:0px;margin-top:4px;text-align:center;&quot;&gt;Добавление участников корзин&lt;/p&gt;&lt;hr&gt;&lt;p&gt;&lt;/p&gt;&lt;p style=&quot;margin:0px;margin-left:8px;text-align:left;&quot;&gt;&lt;span style=&quot;background-color: initial;&quot;&gt;exit / Добавление участника&lt;/span&gt;&lt;br&gt;&lt;/p&gt;" style="shape=mxgraph.sysml.simpleState;html=1;overflow=fill;whiteSpace=wrap;align=center;" parent="1" vertex="1">
          <mxGeometry x="-4382.5" y="1018.46" width="200" height="60" as="geometry" />
        </mxCell>
        <mxCell id="k28_8GWcvLkQVrRJRihw-84" value="&lt;p style=&quot;margin:0px;margin-top:4px;text-align:center;&quot;&gt;Добавить товары в корзину&lt;/p&gt;&lt;hr&gt;&lt;p&gt;&lt;/p&gt;&lt;p style=&quot;margin:0px;margin-left:8px;text-align:left;&quot;&gt;do / Валидация ввода&lt;br&gt;exit / Добавление товара&lt;/p&gt;" style="shape=mxgraph.sysml.simpleState;html=1;overflow=fill;whiteSpace=wrap;align=center;" parent="1" vertex="1">
          <mxGeometry x="-4400" y="630" width="200" height="70" as="geometry" />
        </mxCell>
        <mxCell id="k28_8GWcvLkQVrRJRihw-86" value="&lt;p style=&quot;margin:0px;margin-top:4px;text-align:center;&quot;&gt;Изменить товары&lt;/p&gt;&lt;hr&gt;&lt;p&gt;&lt;/p&gt;&lt;p style=&quot;margin:0px;margin-left:8px;text-align:left;&quot;&gt;do / Валидация ввода&lt;br&gt;exit / Применение изменений&lt;br&gt;&lt;/p&gt;" style="shape=mxgraph.sysml.simpleState;html=1;overflow=fill;whiteSpace=wrap;align=center;" parent="1" vertex="1">
          <mxGeometry x="-4400" y="550" width="200" height="70" as="geometry" />
        </mxCell>
        <mxCell id="k28_8GWcvLkQVrRJRihw-87" value="" style="shape=mxgraph.sysml.actFinal;html=1;verticalLabelPosition=bottom;labelBackgroundColor=#ffffff;verticalAlign=top;" parent="1" vertex="1">
          <mxGeometry x="-3960" y="1180" width="40" height="40" as="geometry" />
        </mxCell>
        <mxCell id="k28_8GWcvLkQVrRJRihw-88" style="edgeStyle=orthogonalEdgeStyle;rounded=0;orthogonalLoop=1;jettySize=auto;html=1;entryX=0.5;entryY=0;entryDx=0;entryDy=0;entryPerimeter=0;" parent="1" source="k28_8GWcvLkQVrRJRihw-90" target="k28_8GWcvLkQVrRJRihw-87" edge="1">
          <mxGeometry relative="1" as="geometry" />
        </mxCell>
        <mxCell id="k28_8GWcvLkQVrRJRihw-89" value="&amp;lt;&amp;lt;Выход из системы&amp;gt;&amp;gt;" style="edgeLabel;html=1;align=center;verticalAlign=middle;resizable=0;points=[];" parent="k28_8GWcvLkQVrRJRihw-88" vertex="1" connectable="0">
          <mxGeometry x="0.2194" y="-2" relative="1" as="geometry">
            <mxPoint as="offset" />
          </mxGeometry>
        </mxCell>
        <mxCell id="k28_8GWcvLkQVrRJRihw-90" value="Завершение работы" style="shape=rect;rounded=1;html=1;whiteSpace=wrap;align=center;" parent="1" vertex="1">
          <mxGeometry x="-4000" y="1052.53" width="120" height="40" as="geometry" />
        </mxCell>
        <mxCell id="k28_8GWcvLkQVrRJRihw-91" style="edgeStyle=orthogonalEdgeStyle;rounded=0;orthogonalLoop=1;jettySize=auto;html=1;entryX=0.5;entryY=0;entryDx=0;entryDy=0;entryPerimeter=0;exitX=1;exitY=0.75;exitDx=0;exitDy=0;exitPerimeter=0;" parent="1" source="k28_8GWcvLkQVrRJRihw-99" target="k28_8GWcvLkQVrRJRihw-102" edge="1">
          <mxGeometry relative="1" as="geometry" />
        </mxCell>
        <mxCell id="k28_8GWcvLkQVrRJRihw-92" value="&amp;lt;&amp;lt;Создать шаблон&amp;gt;&amp;gt;" style="edgeLabel;html=1;align=center;verticalAlign=middle;resizable=0;points=[];" parent="k28_8GWcvLkQVrRJRihw-91" vertex="1" connectable="0">
          <mxGeometry x="0.304" y="-2" relative="1" as="geometry">
            <mxPoint as="offset" />
          </mxGeometry>
        </mxCell>
        <mxCell id="k28_8GWcvLkQVrRJRihw-93" style="edgeStyle=orthogonalEdgeStyle;rounded=0;orthogonalLoop=1;jettySize=auto;html=1;entryX=1;entryY=0.5;entryDx=0;entryDy=0;entryPerimeter=0;exitX=0.75;exitY=0;exitDx=0;exitDy=0;exitPerimeter=0;" parent="1" source="k28_8GWcvLkQVrRJRihw-99" target="k28_8GWcvLkQVrRJRihw-60" edge="1">
          <mxGeometry relative="1" as="geometry">
            <mxPoint x="-3560" y="860" as="sourcePoint" />
            <mxPoint x="-3870" y="310.6249999999998" as="targetPoint" />
            <Array as="points">
              <mxPoint x="-3565" y="790" />
              <mxPoint x="-3400" y="790" />
              <mxPoint x="-3400" y="410" />
              <mxPoint x="-3560" y="410" />
            </Array>
          </mxGeometry>
        </mxCell>
        <mxCell id="k28_8GWcvLkQVrRJRihw-94" style="edgeStyle=orthogonalEdgeStyle;rounded=0;orthogonalLoop=1;jettySize=auto;html=1;entryX=0.5;entryY=0;entryDx=0;entryDy=0;entryPerimeter=0;exitX=0;exitY=0;exitDx=197.1;exitDy=2.9;exitPerimeter=0;" parent="1" source="k28_8GWcvLkQVrRJRihw-99" target="k28_8GWcvLkQVrRJRihw-105" edge="1">
          <mxGeometry relative="1" as="geometry">
            <mxPoint x="-3520" y="860" as="sourcePoint" />
            <Array as="points">
              <mxPoint x="-3520" y="865" />
              <mxPoint x="-3520" y="810" />
              <mxPoint x="-3300" y="810" />
            </Array>
          </mxGeometry>
        </mxCell>
        <mxCell id="k28_8GWcvLkQVrRJRihw-95" value="&amp;lt;&amp;lt;Изменить шаблон&amp;gt;&amp;gt;" style="edgeLabel;html=1;align=center;verticalAlign=middle;resizable=0;points=[];" parent="k28_8GWcvLkQVrRJRihw-94" vertex="1" connectable="0">
          <mxGeometry x="0.4385" relative="1" as="geometry">
            <mxPoint as="offset" />
          </mxGeometry>
        </mxCell>
        <mxCell id="k28_8GWcvLkQVrRJRihw-98" style="edgeStyle=orthogonalEdgeStyle;rounded=0;orthogonalLoop=1;jettySize=auto;html=1;entryX=0.5;entryY=0;entryDx=0;entryDy=0;exitX=0;exitY=0.25;exitDx=0;exitDy=0;exitPerimeter=0;" parent="1" source="k28_8GWcvLkQVrRJRihw-99" target="k28_8GWcvLkQVrRJRihw-90" edge="1">
          <mxGeometry relative="1" as="geometry">
            <mxPoint x="-3870" y="1110" as="targetPoint" />
          </mxGeometry>
        </mxCell>
        <mxCell id="k28_8GWcvLkQVrRJRihw-99" value="&lt;p style=&quot;margin:0px;margin-top:4px;text-align:center;&quot;&gt;Просмотр пользовательских шаблонов&lt;/p&gt;&lt;hr&gt;&lt;p&gt;&lt;/p&gt;&lt;p style=&quot;margin:0px;margin-left:8px;text-align:left;&quot;&gt;do / Отображение пользовательских шаблонов&lt;br&gt;do / Удаление шаблонов&lt;/p&gt;" style="shape=mxgraph.sysml.simpleState;html=1;overflow=fill;whiteSpace=wrap;align=center;" parent="1" vertex="1">
          <mxGeometry x="-3715" y="840" width="200" height="102.53" as="geometry" />
        </mxCell>
        <mxCell id="k28_8GWcvLkQVrRJRihw-100" style="edgeStyle=orthogonalEdgeStyle;rounded=0;orthogonalLoop=1;jettySize=auto;html=1;exitX=0.25;exitY=0;exitDx=0;exitDy=0;exitPerimeter=0;entryX=0.75;entryY=1;entryDx=0;entryDy=0;entryPerimeter=0;" parent="1" source="k28_8GWcvLkQVrRJRihw-102" target="k28_8GWcvLkQVrRJRihw-99" edge="1">
          <mxGeometry relative="1" as="geometry" />
        </mxCell>
        <mxCell id="k28_8GWcvLkQVrRJRihw-101" value="&amp;lt;&amp;lt;Результат создания&amp;gt;&amp;gt;" style="edgeLabel;html=1;align=center;verticalAlign=middle;resizable=0;points=[];" parent="k28_8GWcvLkQVrRJRihw-100" vertex="1" connectable="0">
          <mxGeometry x="0.6549" y="1" relative="1" as="geometry">
            <mxPoint x="26" y="9" as="offset" />
          </mxGeometry>
        </mxCell>
        <mxCell id="k28_8GWcvLkQVrRJRihw-102" value="&lt;p style=&quot;margin:0px;margin-top:4px;text-align:center;&quot;&gt;Создание Шаблона&lt;/p&gt;&lt;hr&gt;&lt;p&gt;&lt;/p&gt;&lt;p style=&quot;margin:0px;margin-left:8px;text-align:left;&quot;&gt;do / Валидация ввода&lt;br&gt;exit / Создание шаблона&lt;/p&gt;" style="shape=mxgraph.sysml.simpleState;html=1;overflow=fill;whiteSpace=wrap;align=center;" parent="1" vertex="1">
          <mxGeometry x="-3530" y="1022.53" width="200" height="70" as="geometry" />
        </mxCell>
        <mxCell id="k28_8GWcvLkQVrRJRihw-103" style="edgeStyle=orthogonalEdgeStyle;rounded=0;orthogonalLoop=1;jettySize=auto;html=1;exitX=0;exitY=0.5;exitDx=0;exitDy=0;exitPerimeter=0;entryX=1;entryY=0.5;entryDx=0;entryDy=0;entryPerimeter=0;" parent="1" source="k28_8GWcvLkQVrRJRihw-105" target="k28_8GWcvLkQVrRJRihw-99" edge="1">
          <mxGeometry relative="1" as="geometry" />
        </mxCell>
        <mxCell id="k28_8GWcvLkQVrRJRihw-104" value="&amp;lt;&amp;lt;Результат&amp;gt;&amp;gt;" style="edgeLabel;html=1;align=center;verticalAlign=middle;resizable=0;points=[];" parent="k28_8GWcvLkQVrRJRihw-103" vertex="1" connectable="0">
          <mxGeometry x="-0.3286" y="-5" relative="1" as="geometry">
            <mxPoint x="-1" as="offset" />
          </mxGeometry>
        </mxCell>
        <mxCell id="k28_8GWcvLkQVrRJRihw-105" value="&lt;p style=&quot;margin:0px;margin-top:4px;text-align:center;&quot;&gt;Изменить шаблон&lt;/p&gt;&lt;hr&gt;&lt;p&gt;&lt;/p&gt;&lt;p style=&quot;margin:0px;margin-left:8px;text-align:left;&quot;&gt;entry / Вывод текущих данных шаблона&lt;br&gt;exit / Применение измений&lt;/p&gt;" style="shape=mxgraph.sysml.simpleState;html=1;overflow=fill;whiteSpace=wrap;align=center;" parent="1" vertex="1">
          <mxGeometry x="-3400" y="827.53" width="200" height="82.5" as="geometry" />
        </mxCell>
        <mxCell id="k28_8GWcvLkQVrRJRihw-106" style="edgeStyle=orthogonalEdgeStyle;rounded=0;orthogonalLoop=1;jettySize=auto;html=1;entryX=0;entryY=0;entryDx=197.1;entryDy=67.1;entryPerimeter=0;exitX=0.75;exitY=0;exitDx=0;exitDy=0;exitPerimeter=0;" parent="1" source="k28_8GWcvLkQVrRJRihw-109" target="k28_8GWcvLkQVrRJRihw-60" edge="1">
          <mxGeometry relative="1" as="geometry">
            <Array as="points">
              <mxPoint x="-3510" y="600" />
              <mxPoint x="-3510" y="480" />
              <mxPoint x="-3563" y="480" />
            </Array>
          </mxGeometry>
        </mxCell>
        <mxCell id="k28_8GWcvLkQVrRJRihw-107" value="&amp;lt;&amp;lt;Просмотр кабинета&amp;gt;&amp;gt;" style="edgeLabel;html=1;align=center;verticalAlign=middle;resizable=0;points=[];" parent="k28_8GWcvLkQVrRJRihw-106" vertex="1" connectable="0">
          <mxGeometry x="0.0802" y="-3" relative="1" as="geometry">
            <mxPoint as="offset" />
          </mxGeometry>
        </mxCell>
        <mxCell id="k28_8GWcvLkQVrRJRihw-108" style="edgeStyle=orthogonalEdgeStyle;rounded=0;orthogonalLoop=1;jettySize=auto;html=1;entryX=0.5;entryY=0;entryDx=0;entryDy=0;" parent="1" source="k28_8GWcvLkQVrRJRihw-109" target="k28_8GWcvLkQVrRJRihw-90" edge="1">
          <mxGeometry relative="1" as="geometry">
            <Array as="points">
              <mxPoint x="-3540" y="770" />
              <mxPoint x="-3940" y="770" />
            </Array>
          </mxGeometry>
        </mxCell>
        <mxCell id="k28_8GWcvLkQVrRJRihw-109" value="&lt;p style=&quot;margin:0px;margin-top:4px;text-align:center;&quot;&gt;Измение пользовательских настроек&lt;/p&gt;&lt;hr&gt;&lt;p&gt;&lt;/p&gt;&lt;p style=&quot;margin:0px;margin-left:8px;text-align:left;&quot;&gt;entry / Отображение текущих настроек&lt;br&gt;exit / Применение изменений&lt;/p&gt;" style="shape=mxgraph.sysml.simpleState;html=1;overflow=fill;whiteSpace=wrap;align=center;" parent="1" vertex="1">
          <mxGeometry x="-3640" y="600" width="200" height="100" as="geometry" />
        </mxCell>
        <mxCell id="k28_8GWcvLkQVrRJRihw-110" style="edgeStyle=orthogonalEdgeStyle;rounded=0;orthogonalLoop=1;jettySize=auto;html=1;exitX=0.75;exitY=0;exitDx=0;exitDy=0;exitPerimeter=0;entryX=0.25;entryY=1;entryDx=0;entryDy=0;entryPerimeter=0;" parent="1" source="k28_8GWcvLkQVrRJRihw-113" target="k28_8GWcvLkQVrRJRihw-60" edge="1">
          <mxGeometry relative="1" as="geometry">
            <mxPoint x="-3690" y="450" as="targetPoint" />
          </mxGeometry>
        </mxCell>
        <mxCell id="k28_8GWcvLkQVrRJRihw-111" value="&amp;lt;&amp;lt;Просмотр кабинета&amp;gt;&amp;gt;" style="edgeLabel;html=1;align=center;verticalAlign=middle;resizable=0;points=[];" parent="k28_8GWcvLkQVrRJRihw-110" vertex="1" connectable="0">
          <mxGeometry x="-0.3362" y="1" relative="1" as="geometry">
            <mxPoint x="31" y="19" as="offset" />
          </mxGeometry>
        </mxCell>
        <mxCell id="k28_8GWcvLkQVrRJRihw-112" style="edgeStyle=orthogonalEdgeStyle;rounded=0;orthogonalLoop=1;jettySize=auto;html=1;entryX=0.5;entryY=0;entryDx=0;entryDy=0;" parent="1" source="k28_8GWcvLkQVrRJRihw-113" target="k28_8GWcvLkQVrRJRihw-90" edge="1">
          <mxGeometry relative="1" as="geometry" />
        </mxCell>
        <mxCell id="k28_8GWcvLkQVrRJRihw-113" value="&lt;p style=&quot;margin:0px;margin-top:4px;text-align:center;&quot;&gt;Изменеие личных данных&lt;/p&gt;&lt;hr&gt;&lt;p&gt;&lt;/p&gt;&lt;p style=&quot;margin:0px;margin-left:8px;text-align:left;&quot;&gt;entry / Отобразить скрытый пароль&lt;br&gt;do / Валидация изменяемых данных&lt;br&gt;exit / Применение изменений&lt;/p&gt;" style="shape=mxgraph.sysml.simpleState;html=1;overflow=fill;whiteSpace=wrap;align=center;" parent="1" vertex="1">
          <mxGeometry x="-3870" y="550" width="200" height="110" as="geometry" />
        </mxCell>
        <mxCell id="k28_8GWcvLkQVrRJRihw-117" style="edgeStyle=orthogonalEdgeStyle;rounded=0;orthogonalLoop=1;jettySize=auto;html=1;entryX=0.5;entryY=0;entryDx=0;entryDy=0;" parent="1" source="k28_8GWcvLkQVrRJRihw-119" target="k28_8GWcvLkQVrRJRihw-90" edge="1">
          <mxGeometry relative="1" as="geometry">
            <mxPoint x="-3940" y="1189.5238095238096" as="targetPoint" />
            <Array as="points">
              <mxPoint x="-3940" y="570" />
              <mxPoint x="-3940" y="570" />
            </Array>
          </mxGeometry>
        </mxCell>
        <mxCell id="k28_8GWcvLkQVrRJRihw-118" value="&amp;lt;&amp;lt;Завершение работы&amp;gt;&amp;gt;" style="edgeLabel;html=1;align=center;verticalAlign=middle;resizable=0;points=[];" parent="k28_8GWcvLkQVrRJRihw-117" vertex="1" connectable="0">
          <mxGeometry x="0.7426" relative="1" as="geometry">
            <mxPoint as="offset" />
          </mxGeometry>
        </mxCell>
        <mxCell id="k28_8GWcvLkQVrRJRihw-119" value="&lt;p style=&quot;margin:0px;margin-top:4px;text-align:center;&quot;&gt;Просмотр списка корзин&lt;/p&gt;&lt;hr&gt;&lt;p&gt;&lt;/p&gt;&lt;p style=&quot;margin:0px;margin-left:8px;text-align:left;&quot;&gt;do: Отображение пользовательских корзин&lt;/p&gt;" style="shape=mxgraph.sysml.simpleState;html=1;overflow=fill;whiteSpace=wrap;align=center;jiggle=0;strokeColor=#080000;" parent="1" vertex="1">
          <mxGeometry x="-4050" y="292.5" width="180" height="80" as="geometry" />
        </mxCell>
        <mxCell id="k28_8GWcvLkQVrRJRihw-120" style="edgeStyle=orthogonalEdgeStyle;rounded=0;orthogonalLoop=1;jettySize=auto;html=1;exitX=0.25;exitY=0;exitDx=0;exitDy=0;exitPerimeter=0;entryX=0;entryY=0.75;entryDx=0;entryDy=0;entryPerimeter=0;" parent="1" source="k28_8GWcvLkQVrRJRihw-126" target="k28_8GWcvLkQVrRJRihw-75" edge="1">
          <mxGeometry relative="1" as="geometry" />
        </mxCell>
        <mxCell id="k28_8GWcvLkQVrRJRihw-121" value="&amp;lt;&amp;lt;Возвращение к корзине&amp;gt;&amp;gt;" style="edgeLabel;html=1;align=center;verticalAlign=middle;resizable=0;points=[];" parent="k28_8GWcvLkQVrRJRihw-120" vertex="1" connectable="0">
          <mxGeometry x="0.0799" y="1" relative="1" as="geometry">
            <mxPoint x="-9" y="45" as="offset" />
          </mxGeometry>
        </mxCell>
        <mxCell id="k28_8GWcvLkQVrRJRihw-124" style="edgeStyle=orthogonalEdgeStyle;rounded=0;orthogonalLoop=1;jettySize=auto;html=1;exitX=0.25;exitY=1;exitDx=0;exitDy=0;exitPerimeter=0;entryX=0.25;entryY=0;entryDx=0;entryDy=0;entryPerimeter=0;" parent="1" source="k28_8GWcvLkQVrRJRihw-126" target="k28_8GWcvLkQVrRJRihw-79" edge="1">
          <mxGeometry relative="1" as="geometry">
            <Array as="points">
              <mxPoint x="-4440.5" y="988.46" />
              <mxPoint x="-4332.5" y="988.46" />
            </Array>
          </mxGeometry>
        </mxCell>
        <mxCell id="k28_8GWcvLkQVrRJRihw-125" value="&amp;lt;&amp;lt;Добавить участников&amp;gt;&amp;gt;" style="edgeLabel;html=1;align=center;verticalAlign=middle;resizable=0;points=[];" parent="k28_8GWcvLkQVrRJRihw-124" vertex="1" connectable="0">
          <mxGeometry x="-0.4651" y="1" relative="1" as="geometry">
            <mxPoint x="6" y="11" as="offset" />
          </mxGeometry>
        </mxCell>
        <mxCell id="k28_8GWcvLkQVrRJRihw-126" value="&lt;p style=&quot;margin:0px;margin-top:4px;text-align:center;&quot;&gt;Работа с участниками корзины&lt;br&gt;&lt;/p&gt;&lt;hr&gt;&lt;p&gt;&lt;/p&gt;&lt;p style=&quot;margin:0px;margin-left:8px;text-align:left;&quot;&gt;do / Отображение списка уастников&lt;br&gt;&lt;/p&gt;" style="shape=mxgraph.sysml.simpleState;html=1;overflow=fill;whiteSpace=wrap;align=center;" parent="1" vertex="1">
          <mxGeometry x="-4480" y="781.26" width="200" height="70" as="geometry" />
        </mxCell>
        <mxCell id="k28_8GWcvLkQVrRJRihw-127" value="&amp;lt;&amp;lt;Вернуться в личный кабинет&amp;gt;&amp;gt;" style="edgeLabel;html=1;align=center;verticalAlign=middle;resizable=0;points=[];" parent="1" vertex="1" connectable="0">
          <mxGeometry x="-3399.998275862069" y="442.5" as="geometry" />
        </mxCell>
        <mxCell id="PlF_Vn7k2cVSZqiHre4j-1" value="&lt;div align=&quot;left&quot;&gt;do / Удалить товары из корзины&lt;br&gt;do /&amp;nbsp; удалить пользователя&lt;br&gt;&lt;/div&gt;" style="text;html=1;strokeColor=none;fillColor=none;align=left;verticalAlign=middle;whiteSpace=wrap;rounded=0;" vertex="1" parent="1">
          <mxGeometry x="-2445" y="680" width="235" height="30" as="geometry" />
        </mxCell>
      </root>
    </mxGraphModel>
  </diagram>
</mxfile>
